<svg width="115" height="115" viewBox="0 0 115 115" fill="none" xmlns="http://www.w3.org/2000/svg">
<path d="M57.5 115C49.5458 115 42.0708 113.49 35.075 110.469C28.0792 107.448 21.9938 103.352 16.8188 98.1813C11.6438 93.0063 7.54783 86.9208 4.531 79.925C1.51417 72.9292 0.00383333 65.4542 0 57.5C0 49.5458 1.51033 42.0708 4.531 35.075C7.55167 28.0792 11.6476 21.9938 16.8188 16.8188C21.9938 11.6438 28.0792 7.54783 35.075 4.531C42.0708 1.51417 49.5458 0.00383333 57.5 0C65.4542 0 72.9292 1.51033 79.925 4.531C86.9208 7.55167 93.0063 11.6476 98.1813 16.8188C103.356 21.9938 107.454 28.0792 110.475 35.075C113.495 42.0708 115.004 49.5458 115 57.5C115 65.4542 113.49 72.9292 110.469 79.925C107.448 86.9208 103.352 93.0063 98.1813 98.1813C93.0063 103.356 86.9208 107.454 79.925 110.475C72.9292 113.495 65.4542 115.004 57.5 115ZM57.5 103.5C70.3417 103.5 81.2187 99.0437 90.1312 90.1312C99.0437 81.2187 103.5 70.3417 103.5 57.5C103.5 44.6583 99.0437 33.7812 90.1312 24.8687C81.2187 15.9563 70.3417 11.5 57.5 11.5C44.6583 11.5 33.7812 15.9563 24.8687 24.8687C15.9563 33.7812 11.5 44.6583 11.5 57.5C11.5 70.3417 15.9563 81.2187 24.8687 90.1312C33.7812 99.0437 44.6583 103.5 57.5 103.5Z" fill="#F34152"/>
<rect x="31" y="36.6143" width="7.94009" height="66.1674" rx="3.97005" transform="rotate(-45 31 36.6143)" fill="#F34152"/>
<rect x="36.6145" y="83.4023" width="7.94009" height="66.1674" rx="3.97005" transform="rotate(-135 36.6145 83.4023)" fill="#F34152"/>
</svg>
