<?xml version="1.0" encoding="UTF-8"?>
<svg id="Layer_2" data-name="Layer 2" xmlns="http://www.w3.org/2000/svg" viewBox="0 0 581.56 275.18">
  <defs>
    <style>
      .cls-1 {
        stroke-width: .81px;
      }

      .cls-1, .cls-2, .cls-3 {
        fill: none;
        stroke: #1b1918;
      }

      .cls-4 {
        fill: #fab200;
      }

      .cls-4, .cls-5, .cls-6, .cls-7, .cls-8, .cls-9, .cls-10, .cls-11, .cls-12, .cls-13, .cls-14, .cls-15, .cls-16, .cls-17, .cls-18 {
        fill-rule: evenodd;
      }

      .cls-5 {
        fill: rgba(250, 178, 0, 0);
      }

      .cls-19, .cls-17 {
        fill: #f9c300;
      }

      .cls-6 {
        fill: #fff;
      }

      .cls-7 {
        fill: #ee7382;
      }

      .cls-20, .cls-10 {
        fill: #923717;
      }

      .cls-8 {
        fill: #f9b300;
      }

      .cls-2 {
        stroke-width: .7px;
      }

      .cls-9 {
        fill: #f6f6f6;
      }

      .cls-11 {
        fill: #1b1918;
      }

      .cls-12 {
        fill: #13160f;
      }

      .cls-3 {
        stroke-width: .88px;
      }

      .cls-13 {
        fill: #e1dfdf;
      }

      .cls-14 {
        fill: #f0f0f0;
      }

      .cls-15 {
        fill: rgba(225, 223, 223, 0);
      }

      .cls-16 {
        fill: #ffd818;
      }

      .cls-18 {
        fill: rgba(249, 195, 0, 0);
      }
    </style>
  </defs>
  <g id="svg331_copy" data-name="svg331 copy">
    <g id="Layer1000">
      <path id="path4" class="cls-17" d="m47.13,108.81c-19.7-7.79-35.44-27.94-39.26-39.41-3.31-10.15-3.68-21.47-.81-27.57.96-2.06,2.87-5.29,5.15-9.04,3.31-5.59,7.5-12.5,8.97-16.69.96-2.65.07-5.22-.74-7.5-.74-2.06-1.47-4.26-.37-6.18.66-1.18,1.76-1.91,3.38-2.28.51-.15,1.1-.15,1.62-.15,4.93,0,7.72,4.78,8.6,7.57,4.12,12.13-5.88,22.94-12.5,30.07-1.1,1.18-2.13,2.28-3.01,3.31-5.07,5.88-3.9,10.81-3.9,10.81l.07.22v.22c3.82,33.89,35.88,49.48,36.17,49.62l2.79,1.32-4.26,6.54-1.91-.88Z"/>
      <path id="path6" class="cls-17" d="m78.74,93.44l.15-1.4c.07-.66,1.69-16.25,8.53-32.2,9.26-21.54,23.67-33.16,41.61-33.67.44-.07,1.18-.22,2.06-.22,1.84,0,4.78.44,8.23,2.5,1.76,1.1,3.97,2.79,6.47,4.85,4.12,3.23,10.37,8.23,13.31,8.38,3.6.22,4.78,2.43,4.71,4.26-.15,3.53-4.93,6.91-9.78,6.91-.59,0-1.25-.07-1.84-.15-7.28-1.4-18.16-16.39-19.78-18.67-.22-.07-.59-.15-1.25-.15-5.95,0-20.29,5.44-27.5,16.17-13.82,20.66-16.32,44.99-16.39,45.21l-.51,5.37-8.01-7.2Z"/>
      <path id="path8" class="cls-17" d="m132.04,209.16c-18.31,0-33.89-4.85-42.86-13.38l-1.1-1.03,1.54-7.28,1.25-.59c1.25-.59,30.14-13.75,50.73-13.75,1.54,0,3.09.07,4.48.22,14.19,1.54,22.94,5.73,25.29,12.13,1.1,3.09,1.25,8.09-4.56,14.34-5.37,5.66-19.04,9.34-34.77,9.34Z"/>
      <path id="path10" class="cls-17" d="m126.6,233.64c-7.13,0-14.7-3.46-20.81-9.48-15.66-15.51-18.31-27.86-18.38-28.38v-.15c-.07-.51-.22-2.13.88-3.46.66-.74,1.62-1.18,2.65-1.18,1.18,0,2.35.51,3.9,1.62,1.98.66,9.78,3.31,18.38,7.13,13.38,6.03,21.83,11.84,25,17.35,2.21,3.75,2.43,7.57.59,10.66-2.06,3.75-6.62,5.88-12.2,5.88Z"/>
      <path id="path12" class="cls-17" d="m36.54,193.35c-1.98.88-7.13,2.79-13.53,2.79-2.87,0-5.66-.37-8.31-1.18l-.59-.15-.44-.44c-.66-.59-1.25-1.4-1.47-2.35-1.32-.44-2.65-1.1-3.38-2.13-.59-.81-.88-1.76-.74-2.72.22-1.54.88-2.57,1.76-3.31-.59-.81-.59-1.47-.59-1.91,0-.88.44-3.82,6.03-3.82,1.25,0,2.21.15,2.79.37.51-.15,1.4-.51,2.21-.81,2.43-.96,5.59-2.21,8.68-2.65-.96-.74-2.13-1.84-2.65-3.38-.51-1.47-.37-3.01.44-4.41.37-.66,1.47-2.79,3.75-2.79,1.84,0,2.87,1.32,3.6,2.28.29.44.66.81.96,1.1,2.72,2.06,5.81,6.69,5.59,12.87l.07.29c4.85-.07,16.25-.29,24.19-.29,9.12,0,9.48.22,10.22.74,1.62,1.03,6.18,4.93,5.29,9.41-.74,4.04-5.22,6.69-13.53,8.09l-.44.07-29.92-5.66Z"/>
      <path id="path14" class="cls-17" d="m81.38,239.01c-8.82,0-18.45-8.82-22.35-20.59-2.21-6.69-5.44-23.67,12.35-37.13l2.79-2.13,1.18,3.01c.22.22,1.18,1.25,3.9,1.25,2.35,0,5.37-.81,8.82-2.35l.59-.29h.66c.44,0,2.72.22,4.26,2.13.74.96,1.54,2.57,1.18,5.07l-.15.96c-.37,2.43-1.32,8.9.15,10.29.29.22.59.51.96.81,3.38,2.94,10.44,8.97,7.87,19.63-2.79,11.47-11.69,19.19-22.13,19.26l-.07.07Z"/>
      <path id="path16" class="cls-17" d="m113.51,275.18c-6.91,0-15.81-.96-18.45-5.44-.59-.96-1.32-2.87-.37-5.37l-6.4-33.23.15-.59c.51-1.76,2.57-5.07,7.35-6.18l2.21-.51,14.78,33.3c10.07.15,25.14,1.54,26.32,8.82.22,1.25-.22,2.5-1.1,3.53-3.53,4.19-16.54,5.66-24.48,5.66h0Z"/>
      <path id="path18" class="cls-17" d="m50.87,269.66c-7.87,0-13.16-1.76-15.81-5.37l-.88-1.25.59-1.4c.15-.37,4.04-9.56,20.36-9.56,1.98,0,4.12.15,6.25.44l7.06-25.22,1.91-.15h.37c1.18,0,3.46.22,4.85,1.76.81.88,1.18,2.13,1.1,3.38l-1.54,25.66c.44.44.88.96,1.1,1.69.37.96.51,2.57-.88,4.41-2.28,3.09-16.39,5.59-24.48,5.59h0Z"/>
      <path id="path20" class="cls-17" d="m80.13,195.63c-4.85,0-9.48-1.69-13.82-5.07l-2.5-1.91,8.23-8.01,1.25.15c.07,0,5.88.66,10.44.66,2.21,0,3.31-.15,3.82-.29l.51-1.03,1.84.22c.37.07,2.43.37,3.9,2.28,1.18,1.62,1.54,3.82.96,6.54l-.22.88-.66.59c-.22.29-5.81,5-13.75,5h0Z"/>
      <path id="path22" class="cls-17" d="m76.9,216.36c-8.53,0-14.34-3.38-17.06-5.37-.81-.07-1.69-.51-2.21-1.91l-.07-.07v-.37c-.07-.22-.07-.37-.15-.59l-1.18-8.01,1.69,1.69c.22-1.1.44-1.91.51-2.28l.96-3.82,3.23,2.28c3.9,2.72,8.68,4.19,14.04,4.19,8.16,0,15.07-3.16,15.14-3.23l1.76-.81,8.6,9.26-2.72,1.76c-7.72,4.78-15.29,7.28-22.57,7.28h0Z"/>
      <path id="path24" class="cls-17" d="m80.65,231.66c-8.97,0-15.66-3.31-15.95-3.38l-.44-.22-.29-.29c-2.65-2.72-4.93-9.34-5.37-10.59l-2.43-7.35,6.47,4.19c5.15,3.38,10.66,5.07,16.25,5.07h0c10.66,0,18.89-6.25,20.36-7.43.74-.96,1.76-1.1,2.21-1.1h1.25l.81.96c.88,1.03.81,2.28.51,3.97v.15l-1.84,8.38-.81.59c-5.95,4.71-12.94,7.06-20.73,7.06h0Z"/>
      <path id="path26" class="cls-17" d="m93.44,187.54c-2.43,0-4.93-.44-7.5-1.32-1.25.15-4.12.37-7.94.37-13.31,0-44.7-3.38-48.67-34.63-1.84-14.04,2.13-29.92,11.47-45.8,5.59-9.56,11.47-16.39,13.75-18.89-.44-1.76-1.98-5.22-7.13-6.54l.66-5.37h.15c.81,0,3.38.07,6.18.88-.51-.51-1.18-1.03-1.91-1.47l1.84-5.07c.29.07,5.66,1.18,9.04,4.63.66-2.57.81-6.25-1.1-11.03l4.63-2.65c.29.37,5.44,7.2,4.78,15.73,1.84-.74,3.97-2.13,5.44-4.85l3.75-7.13,1.32,7.94c.44,2.87,0,8.31-4.19,12.35,8.97,3.82,28.82,12.5,38.67,18.67,11.17,6.98,18.38,19.04,18.82,31.54.37,10.51-3.68,26.25-25,41.91-1.4,2.57-6.47,10.73-17.06,10.73h0Z"/>
      <path id="path28" class="cls-17" d="m113,133.44s-1.98-2.65-5.73-4.56l-7.79-3.9,8.68-1.18s.29-.07.88-.07c3.68,0,7.87,1.98,8.82,7.65l-4.85,2.06h0Z"/>
      <path id="path30" class="cls-17" d="m42.49,146.74c-.96-3.23-.15-8.75,5.88-10.81l2.79,4.48s-2.28,2.35-3.53,6.4l-2.65,8.53-2.5-8.6Z"/>
      <path id="path32" class="cls-17" d="m91.97,178.72c-14.85,0-32.79-22.2-35.07-25.14l-7.72-6.03,2.87-4.56c6.84,3.46,18.01,4.63,26.1,4.63,7.28,0,11.47-.88,12.5-1.47,4.48-2.5,17.57-11.98,17.72-12.13l3.68,3.97-3.68,4.34.29,1.32c3.01,13.89,5.37,24.85-10.07,33.38-1.98,1.1-4.26,1.69-6.62,1.69h0Z"/>
      <path id="path34" class="cls-17" d="m51.98,144.39l7.5,1.47c.15,0,13.53,2.65,23.31,2.65h0c3.75,0,5.81-.37,6.91-.74l16.25-10.95,3.9,13.97-1.03,1.1c-.44.51-11.4,12.13-35.88,15.66l-1.47.22-19.48-23.38Z"/>
      <path id="path36" class="cls-17" d="m91.75,177.25c-3.82,0-8.09-1.25-12.65-3.68l-8.75-4.71,9.92-.44c.15,0,16.54-.81,24.11-7.87l6.98-6.62-2.5,9.26c-1.4,4.93-6.69,14.04-17.13,14.04h0Z"/>
      <path id="path38" class="cls-17" d="m46.9,109.39c-.51-4.41,3.16-9.41,6.76-11.17,1.25-.59,2.94-3.09,3.68-4.56l2.43-4.85,2.43,4.93c1.91,3.82,1.1,6.84.15,8.6-1.47,2.72-4.41,4.63-7.72,5.07-1.84.22-2.35,2.21-2.43,2.43l-5.29-.44Z"/>
      <path id="path40" class="cls-17" d="m81.31,100.57c-3.6,0-7.87-2.13-8.97-8.16l-1.03-5.81,5.07,3.01c1.25.74,3.68,1.76,5,1.76h.22c.37-.07.74-.07,1.1-.07,3.53,0,8.38,1.98,10.29,5.59l-4.12,3.16-.15.15c-.29-.22-1.25-.96-2.13-.96-.29,0-.51.07-.81.22-1.25.66-2.87,1.1-4.48,1.1h0Z"/>
      <path id="path42" class="cls-17" d="m42.05,238.27c-3.75,0-6.76-1.47-7.13-1.62l-.81-.44L2.21,169.17.22,121.16l28.01,34.26,26.32,69.25-.07.74c-1.76,11.17-8.53,12.87-12.42,12.87h0Z"/>
      <path id="path44" class="cls-17" d="m42.35,238.13c-2.13,0-4.48-.44-6.98-1.32l-1.03-.37L.15,164.46l6.4,2.57c.29.15.74.29,1.18.37,1.25-2.5,3.68-7.28,7.79-7.28.29,0,.51,0,.81.07.74.07,1.47.29,2.21.44,1.1.22,2.28.51,3.09.51h.37c1.03-2.72,1.69-3.75,1.98-4.12l2.94-3.9,27.64,71.53v.51c-.07,4.41-2.79,12.94-12.2,12.94h0Z"/>
      <g id="Layer1001">
        <path id="path46" class="cls-18" d="m12.35,170.71l18.97,41.46-18.75-41.76c-.07.15-.15.22-.22.29Zm30.36,66.9c-1.1,0-2.65-.15-4.63-.44l-1.4-.22L5.88,169.68l1.47-1.32s1.4-1.4,3.09-4.48l1.98,1.03,3.01-1.4,32.79,73-3.01.88c-.37,0-1.1.22-2.5.22Z"/>
      </g>
      <path id="path49" class="cls-17" d="m42.2,237.61c-3.46,0-6.47-1.18-6.62-1.18l-1.03-.37-5.15-11.25,21.25-9.04,3.53,8.9v.59c-.29,5-2.87,8.31-3.16,8.68-2.06,2.35-5.07,3.68-8.82,3.68h0Z"/>
      <path id="path51" class="cls-17" d="m31.47,229.23l-6.32-13.09,5.22.88s.66.07,1.62.07c2.94,0,8.45-.81,12.2-6.32l2.94-4.19,4.85,12.72-.37.96c-.15.37-3.53,8.97-18.45,8.97h-1.69Z"/>
      <path id="path53" class="cls-17" d="m41.68,220.77l-22.2-54.92,2.28-.88v-.15l-.15-.44.22-.07.44-2.79h-.22s.15,0,.29-.15l2.87-2.5,23.01,59.33-6.54,2.57Z"/>
      <path id="path55" class="cls-17" d="m62.27,129.02c-1.98,0-3.9-.88-5.22-2.43-1.32-1.47-1.98-3.38-1.98-5.44,0-4.34,3.23-7.87,7.28-7.87s7.28,3.53,7.2,7.87c0,4.34-3.23,7.87-7.28,7.87h0Z"/>
      <path id="path57" class="cls-17" d="m88.15,122.63c-3.38,0-6.4-2.5-7.28-6.1-1.03-4.19,1.25-8.38,5.15-9.34.51-.15,1.1-.22,1.62-.22,3.38,0,6.4,2.5,7.28,6.1.51,1.98.22,4.04-.66,5.73-.96,1.84-2.57,3.16-4.48,3.6-.51.15-1.03.22-1.62.22Z"/>
      <g id="Layer1002">
        <path id="path59" class="cls-18" d="m77.34,185.34c-9.12,0-22.72-1.84-35.73-10.73-7.13-4.93-11.25-13.67-11.91-25.51-1.25-21.83,9.56-48.52,25.14-62.78-.22-1.62-1.18-4.56-4.93-5.95l.96-5.29c1.4,0,3.23.22,5,.88-.15-.29-.29-.59-.44-.66-1.69-1.4-1.69-2.79-1.4-3.68.37-1.1,1.47-1.84,2.72-1.84,1.4,0,4.19,1.4,6.4,3.9.88-2.65,1.47-6.03.51-8.97l5.07-1.84c.66,1.62,6.03,15.66.66,23.38l-.37.59-.59.29c-.07,0-5.37,2.72-9.34,7.13-11.1,12.35-16.62,26.25-16.39,41.24.37,21.91,12.42,33.74,44.33,43.82l-.29,5.22c-.15.07-3.75.81-9.41.81h0Z"/>
      </g>
      <g id="Layer1003">
        <path id="path62" class="cls-18" d="m63.23,139.17c-7.72,0-14.78-7.65-16.76-18.16-1.03-5.37-.51-10.73,1.4-15.07,2.06-4.71,5.51-7.72,9.7-8.53.66-.15,1.4-.22,2.06-.22,7.72,0,14.78,7.65,16.76,18.16,2.13,11.62-2.72,21.98-11.1,23.6-.66.15-1.4.22-2.06.22h0Z"/>
      </g>
      <g id="Layer1004">
        <path id="path65" class="cls-18" d="m90.5,131.3c-6.54,0-13.53-5.15-17.72-13.16-2.57-4.85-3.75-10.07-3.31-14.78.44-5.07,2.72-8.97,6.32-10.95,1.54-.81,3.31-1.25,5.15-1.25,6.54,0,13.53,5.15,17.72,13.16,5.59,10.51,4.26,21.83-3.01,25.66-1.54.88-3.31,1.32-5.15,1.32h0Z"/>
      </g>
      <g id="Layer1005">
        <path id="path68" class="cls-18" d="m78.59,153.95c-17.57,0-33.16-8.6-33.82-8.97l-.51-.29-.37-.44c-.44-.51-1.47-1.98-.66-3.6l.74-1.54h1.76c.51,0,.96.15,1.32.29,3.23.59,23.75,4.48,34.41,4.48,3.6,0,4.63-.44,4.78-.51,5.88-3.09,24.92-17.06,25.14-17.2l6.69-4.93-2.5,7.94c-.22.74-5.81,17.72-24.11,23.01-3.97,1.18-8.31,1.76-12.87,1.76h0Z"/>
      </g>
      <g id="Layer1006">
        <path id="path71" class="cls-18" d="m44.26,150.71c-.44-.59-4.12-5.51-2.28-10.22,1.18-3.01,4.12-4.93,8.75-5.66l1.54,5.15c-.44.22-4.56,2.43-3.23,8.53l-4.78,2.21Z"/>
      </g>
      <g id="Layer1007">
        <path id="path74" class="cls-18" d="m112.56,134.98h-.22c-.07-.51-.51-5.22-6.69-6.25l-.29-5.29c.22-.07,1.91-.51,3.97-.51,3.01,0,5.51,1.03,7.06,2.94,1.76,2.21,2.21,5.44,1.32,9.56l-5.15-.44Z"/>
      </g>
      <path id="path77" class="cls-17" d="m62.78,137.48c-7.43,0-13.45-6.69-13.45-14.92s6.03-14.85,13.45-14.85,13.45,6.69,13.45,14.92-6.03,14.85-13.45,14.85h0Z"/>
      <path id="path79" class="cls-17" d="m62.78,129.54c-3.53,0-6.4-3.09-6.4-6.91s2.87-6.91,6.4-6.91c1.76,0,3.46.81,4.63,2.13,1.1,1.32,1.76,3.01,1.76,4.78,0,3.82-2.87,6.91-6.4,6.91h0Z"/>
      <path id="path81" class="cls-17" d="m62.86,136.89c-1.47,0-3.01-.37-4.56-1.03-3.23-1.47-5.88-4.63-7.2-8.53-1.4-4.12-1.1-8.38.88-12.13l5.07,1.18s.07,3.82,1.32,7.43c2.06,6.18,5.15,6.18,6.18,6.18.51,0,1.1-.07,1.69-.22.07,0,.22-.07.37-.07l8.16-2.13-5.37,6.47c-.29.37-2.5,2.87-6.54,2.87h0Z"/>
      <path id="path83" class="cls-17" d="m64.25,123.14c-1.03,0-1.98-.37-2.65-1.1-.74-.74-1.1-1.69-1.1-2.72,0-2.06,1.69-3.75,3.75-3.75,1.03,0,1.98.37,2.65,1.1.74.74,1.1,1.69,1.1,2.72,0,2.06-1.69,3.75-3.75,3.75h0Z"/>
      <path id="path85" class="cls-17" d="m87.93,127.92c-5.59,0-10.81-3.6-13.31-9.19-3.31-7.5-.44-16.1,6.32-19.04,1.62-.74,3.23-1.03,5-1.03,5.59,0,10.81,3.6,13.31,9.19,1.54,3.6,1.84,7.5.66,11.1-1.18,3.68-3.68,6.54-6.98,8.01-1.54.66-3.23.96-5,.96h0Z"/>
      <path id="path87" class="cls-17" d="m87.27,120.13c-2.65,0-5.07-1.69-6.18-4.26-1.54-3.46-.15-7.5,3.09-8.9.81-.37,1.62-.51,2.43-.51,2.65,0,5.07,1.69,6.18,4.26.74,1.76.81,3.75.15,5.44-.59,1.54-1.76,2.79-3.23,3.46-.74.29-1.54.51-2.43.51h0Z"/>
      <path id="path89" class="cls-17" d="m88.22,127.19c-3.53-.07-7.28-1.84-10-4.85-2.94-3.16-4.41-7.28-4.12-11.47l5.15-.96c1.18,2.57,5.66,9.78,10.29,9.78,1.18,0,2.28-.44,3.53-1.32l6.84-5.29-2.21,7.94c-.59,2.13-3.31,6.1-9.19,6.1l-.29.07Z"/>
      <path id="path91" class="cls-17" d="m86.97,113.51c-1.47,0-2.87-.88-3.46-2.28-.81-1.91,0-4.12,1.91-5,.51-.22,1.03-.29,1.54-.29,1.47,0,2.87.88,3.46,2.28.81,1.91-.07,4.19-1.91,5-.51.15-1.03.29-1.54.29h0Z"/>
      <g id="Layer1008">
        <path id="path93" class="cls-18" d="m55.14,146.45l33.45,1.98,17.2-10.44,2.28,9.41-1.62,1.03c-17.72,11.76-36.98,13.75-37.79,13.82l-1.47.15-12.06-15.95Z"/>
      </g>
      <path id="path96" class="cls-17" d="m72.49,148.95l-.07-5.44c12.65-.37,25.36-7.43,25.51-7.5l2.87,4.63-12.06,8.38-16.25-.07Z"/>
      <path id="path98" class="cls-17" d="m2.87,142.99l5.95-3.97,3.97,28.82-7.87,3.31-2.06-28.16Z"/>
      <path id="path100" class="cls-17" d="m6.98,146.82c-2.13,0-3.68-.74-4.04-.88l-1.4-.66-1.54-23.67,15.59,18.31-.74,1.62c-2.21,4.56-5.88,5.29-7.87,5.29h0Z"/>
      <g id="Layer1009">
        <path id="path102" class="cls-18" d="m37.27,193.5l-6.03-10.29,6.91,2.35c.07,0,6.03,1.98,13.31,1.98s13.16-1.91,17.57-5.66l3.97,3.6-9.41,13.89-26.32-5.88Z"/>
      </g>
      <g id="Layer1010">
        <path id="path105" class="cls-18" d="m94.32,181.66c-9.63,0-19.19-7.13-19.56-7.43l3.23-4.41c5.07,3.6,9.78,5.37,13.89,5.37,10.07,0,14.56-10.66,14.78-11.1l5.15,1.76c-3.6,13.09-11.54,15.81-17.5,15.81h0Z"/>
      </g>
      <g id="Layer1011">
        <path id="path108" class="cls-18" d="m83.37,237.1c-4.85,0-11.91-2.28-18.38-12.94-10.29-17.13-2.43-34.11,9.26-42.64l.81-.59,12.06,1.03-4.34,4.19c-.07.07-8.38,8.31-8.16,20,.22,8.75,5,17.28,14.34,25.51l3.16,2.79-3.82,1.76c-.22.07-2.06.88-4.93.88h0Z"/>
      </g>
      <path id="path111" class="cls-17" d="m10.81,209.01l2.35-2.57c.59-.59,2.57-2.65,5.07-2.65.81,0,1.54.22,2.21.59.15,0,.37.07.81.07,2.79,0,7.94-.81,10.73-1.32-1.18-1.76-2.21-5.59-.81-7.79.81-1.4,2.43-2.28,4.04-2.28,1.1,0,2.06.37,2.79,1.1s1.1,1.69,1.1,2.79c0,.96.59,2.21.96,2.43,1.25.59,2.28,1.91,3.01,3.01,18.89-3.53,39.41-7.79,41.76-8.97l.22-.15.15-.07c.29-.15,1.69-.74,3.31-.74,2.5,0,4.41,1.47,4.93,3.75,1.25,5.07-5.51,9.92-18.6,13.31-11.62,3.01-40.58,11.03-40.88,11.1l-1.03.29-22.13-11.91Z"/>
      <path id="path113" class="cls-17" d="m121.3,201.73l-9.48,2.79-5.51-7.43-15.59-.88.15-5.44h3.01c7.2,0,9.78-.07,10.66-.15,1.1-1.1,3.6-5,5.44-8.16l.29-.59.51-.37c.44-.29,1.4-.81,2.43-.81s1.91.44,2.43,1.25c.66.88.74,1.98.29,3.31-.51,1.47-2.79,5.15-4.26,7.43l2.21,3.38,7.43-2.28,1.62.88,11.4,6.32-2.28,4.93-10.73-4.19Z"/>
      <path id="path115" class="cls-17" d="m121.6,192.62l-12.94,3.46-1.54-5.22c4.48-1.4,9.48-3.09,11.1-3.75.59-1.18,1.54-4.63,2.21-7.94l.15-.66.37-.51c.44-.59,1.47-1.62,2.87-1.62.81,0,1.54.29,2.06.88.66.66.96,1.54.96,2.65,0,1.32-.81,4.71-1.47,7.13l2.35,1.91,5.44-3.82,1.69.29,11.1,2.13-.66,5.37-9.92-.66-7.2,4.93-6.54-4.56Z"/>
      <path id="path117" class="cls-17" d="m106.6,217.54l-6.84-3.23.59-6.98-7.94-7.94,3.75-3.97c2.87,2.57,6.1,5.44,7.35,6.47,1.32-.15,4.26-.96,6.54-1.76l.59-.22.66.07c1.69.22,2.79,1.18,3.09,2.57.07.51.22,2.21-1.76,3.38-.96.59-3.68,1.4-5.66,1.98l-.29,1.98,5,2.28,3.75,10.66-5,2.13-3.82-7.43Z"/>
      <g id="Layer1012">
        <path id="path119" class="cls-18" d="m113.59,274.96c-8.6,0-14.19-1.54-16.91-4.63-1.32-1.54-1.98-3.46-1.84-5.51l-6.69-34.55,6.47-5.88,10.66,39.11-.88,1.1h0s-.51.81-.29,1.25c.15.29,1.98,3.16,15.66,3.16,1.03,0,2.13,0,3.23-.07l.44,5.44c-.22,0-4.63.59-9.85.59h0Z"/>
      </g>
      <g id="Layer1013">
        <path id="path122" class="cls-18" d="m66.02,258.12l4.19-31.1,6.32,1.84-2.79,35.07-7.72-5.81Z"/>
      </g>
      <path id="path125" class="cls-17" d="m18.97,211.88l2.57-4.78c4.71,2.35,10.88,4.85,12.72,4.85,3.82-.15,44.55-11.4,51.61-15.73l.66-.37h.81c1.76,0,3.16.88,3.68,2.28.37,1.03.37,2.65-1.76,4.26-2.13,1.69-31.17,10.44-55.14,17.57l-1.18.37-13.97-8.45Z"/>
      <path id="path159" class="cls-10" d="m49.48,104.18S15.81,88.22,11.76,52.42c0,0-1.76-6.18,4.41-13.31,6.18-7.13,19.19-18.31,14.92-30.8,0,0-2.06-6.62-7.06-5.51-5.07,1.1,2.35,6.98-.29,14.26-2.65,7.2-11.84,20.88-14.19,25.95-2.57,5.51-2.21,16.17.88,25.58,3.38,10.29,18.16,30.07,37.64,37.79l1.4-2.21Z"/>
      <path id="path161" class="cls-10" d="m81.53,92.34s6.25-62.64,47.86-63.45c0,0,3.53-1.1,8.53,1.91,5,3.01,15.44,13.23,20.95,13.6,5.59.37-.59,6.69-6.18,5.66-5.66-1.1-15.88-14.34-18.23-17.86s-23.38,1.84-33.08,16.39c-14.41,21.54-16.84,46.46-16.84,46.46l-3.01-2.72Z"/>
      <path id="path163" class="cls-14" d="m91.97,189.38s33.67-15.51,53.74-13.31c22.42,2.43,28.89,11.4,19.04,21.91-9.85,10.51-55.21,13.53-73.74-4.12l.96-4.48Z"/>
      <path id="path165" class="cls-1" d="m91.97,189.38s33.67-15.51,53.74-13.31c22.42,2.43,28.89,11.4,19.04,21.91-9.85,10.51-55.21,13.53-73.74-4.12l.96-4.48Z"/>
      <path id="path167" class="cls-14" d="m93.52,195.12s35.29,11.4,42.35,23.45c6.98,12.06-12.94,18.75-28.16,3.68-15.22-15.07-17.64-26.98-17.64-26.98,0,0-.44-3.31,3.46-.15Z"/>
      <path id="path169" class="cls-1" d="m93.52,195.12s35.29,11.4,42.35,23.45c6.98,12.06-12.94,18.75-28.16,3.68-15.22-15.07-17.64-26.98-17.64-26.98,0,0-.44-3.31,3.46-.15Z"/>
      <path id="path171" class="cls-16" d="m66.46,196.22l-30.29-5.66s-9.85,5-20.66,1.84c0,0-2.13-1.91.96-2.13,0,0-6.03-.74-5.73-2.72.22-1.91,1.91-2.43,6.03-2.35,0,0-4.78-1.98-4.78-3.16s4.56-1.4,5.51-.66,8.68-4.04,13.97-3.53l.29-4.12s-4.34-1.98-2.65-5.07c1.69-3.16,2.43,0,4.34,1.47,1.91,1.47,4.78,5.37,4.48,10.88l.44,2.87s34.19-.81,35.36-.07c1.18.66,11.98,9.19-7.28,12.42h0Z"/>
      <path id="path173" class="cls-1" d="m66.46,196.22l-30.29-5.66s-9.85,5-20.66,1.84c0,0-2.13-1.91.96-2.13,0,0-6.03-.74-5.73-2.72.22-1.91,1.91-2.43,6.03-2.35,0,0-4.78-1.98-4.78-3.16s4.56-1.4,5.51-.66,8.68-4.04,13.97-3.53l.29-4.12s-4.34-1.98-2.65-5.07c1.69-3.16,2.43,0,4.34,1.47,1.91,1.47,4.78,5.37,4.48,10.88l.44,2.87s34.19-.81,35.36-.07c1.18.66,11.98,9.19-7.28,12.42h0Z"/>
      <path id="path175" class="cls-16" d="m89.18,183.57s3.53.22,2.94,4.12c-.59,3.97-1.91,11.1.88,13.6,2.72,2.5,10.44,7.72,8.01,17.79-2.43,10-10.07,17.13-19.48,17.2-15.29.15-35.07-32.72-8.45-52.79-.07,0,3.01,5.88,16.1.07Z"/>
      <path id="path177" class="cls-1" d="m89.18,183.57s3.53.22,2.94,4.12c-.59,3.97-1.91,11.1.88,13.6,2.72,2.5,10.44,7.72,8.01,17.79-2.43,10-10.07,17.13-19.48,17.2-15.29.15-35.07-32.72-8.45-52.79-.07,0,3.01,5.88,16.1.07Z"/>
      <path id="path179" class="cls-16" d="m96.46,227.02l14.56,32.86s24.33-.07,25.36,6.54-45.14,10.07-38.89-1.69l-6.47-33.45c.07,0,.88-3.23,5.44-4.26Z"/>
      <path id="path181" class="cls-1" d="m96.46,227.02l14.56,32.86s24.33-.07,25.36,6.54-45.14,10.07-38.89-1.69l-6.47-33.45c.07,0,.88-3.23,5.44-4.26Z"/>
      <path id="path183" class="cls-16" d="m73.96,232.02l-1.62,27.42s2.57.66.81,3.01c-1.69,2.35-29.7,8.6-35.88.22,0,0,4.34-10.66,26.1-7.13l7.2-25.66s3.6-.22,3.38,2.13h0Z"/>
      <path id="path185" class="cls-1" d="m73.96,232.02l-1.62,27.42s2.57.66.81,3.01c-1.69,2.35-29.7,8.6-35.88.22,0,0,4.34-10.66,26.1-7.13l7.2-25.66s3.6-.22,3.38,2.13h0Z"/>
      <path id="path187" class="cls-10" d="m92.12,188.65s-11.25,9.7-24.11-.22l5.07-4.93s15.37,1.84,16.62-.37c-.07-.07,3.46.29,2.43,5.51Z"/>
      <path id="path189" class="cls-10" d="m93,201.29s-18.16,8.6-31.98-1.18c0,0-1.18,4.78-.96,6.98.22,2.28,0,.51,0,.51,0,0,14.26,14.12,37.94-.96l-5-5.37Z"/>
      <path id="path191" class="cls-10" d="m101.38,213.5s-18.82,16.69-40.14,2.79c0,0,2.35,7.13,4.71,9.56,0,0,18.01,8.97,33.89-3.38l1.62-7.43s.37-2.5-.07-1.54h0Z"/>
      <path id="path193" class="cls-16" d="m63.23,80.43s6.03-6.4,1.47-18.09c0,0,6.47,8.38,3.46,17.64,0,0,7.57-.07,11.25-7.13,0,0,1.47,8.6-7.13,12.5,0,0,30.22,12.5,42.86,20.36,18.67,11.69,30.29,42.27-6.91,69.33,0,0-6.18,14.19-22.06,8.38,0,0-49.26,6.69-54.26-31.83-4.26-32.94,25.44-63.45,25.44-63.45,0,0-.37-7.72-9.34-10.07,0,0,7.72-.15,11.25,4.19,0,0,.44-6.47-5.59-9.85.07,0,9.19,1.84,9.56,8.01h0Z"/>
      <path id="path195" class="cls-1" d="m63.23,80.43s6.03-6.4,1.47-18.09c0,0,6.47,8.38,3.46,17.64,0,0,7.57-.07,11.25-7.13,0,0,1.47,8.6-7.13,12.5,0,0,30.22,12.5,42.86,20.36,18.67,11.69,30.29,42.27-6.91,69.33,0,0-6.18,14.19-22.06,8.38,0,0-49.26,6.69-54.26-31.83-4.26-32.94,25.44-63.45,25.44-63.45,0,0-.37-7.72-9.34-10.07,0,0,7.72-.15,11.25,4.19,0,0,.44-6.47-5.59-9.85.07,0,9.19,1.84,9.56,8.01h0Z"/>
      <path id="path197" class="cls-11" d="m108.51,126.45s5.66-.74,6.69,5.37c0,0-2.21-3.09-6.69-5.37Z"/>
      <path id="path199" class="cls-11" d="m45.14,145.93s-1.62-5.51,4.19-7.5c0,.07-2.72,2.72-4.19,7.5Z"/>
      <path id="path201" class="cls-11" d="m109.98,136.23s-13.31,9.7-17.94,12.28c-4.71,2.65-28.89,3.01-41.17-3.16l7.94,6.25s23.97,31.02,38.45,23.01c14.48-8.01,11.4-17.64,8.16-33.08l4.56-5.29Z"/>
      <path id="path203" class="cls-6" d="m104.32,141.15l2.5,8.9s-10.44,11.32-34.26,14.85l-13.6-16.32s23.89,4.71,31.91,1.69l13.45-9.12Z"/>
      <path id="path205" class="cls-3" d="m104.32,141.15l2.5,8.9s-10.44,11.32-34.26,14.85l-13.6-16.32s23.89,4.71,31.91,1.69l13.45-9.12Z"/>
      <path id="path207" class="cls-6" d="m80.36,171.22s17.5-.74,25.8-8.6c0,0-5.29,19.56-25.8,8.6Z"/>
      <path id="path209" class="cls-3" d="m80.36,171.22s17.5-.74,25.8-8.6c0,0-5.29,19.56-25.8,8.6Z"/>
      <path id="path211" class="cls-10" d="m59.77,94.84s-2.28,4.48-4.93,5.81c-2.65,1.32-5.66,5.22-5.29,8.45,0,0,.88-3.97,4.71-4.48,3.82-.51,8.31-4.04,5.51-9.78h0Z"/>
      <path id="path213" class="cls-10" d="m74.99,91.9s4.19,2.5,6.91,2.13,7.2,1.25,8.68,4.12c0,0-2.94-2.79-6.03-1.18-3.09,1.69-8.38,1.18-9.56-5.07h0Z"/>
      <path id="path215" class="cls-16" d="m3.23,129.17l1.62,39.33,31.32,65.65s13.16,6.62,15.59-9.19l-25.88-68.15-22.64-27.64Z"/>
      <path id="path217" class="cls-1" d="m3.23,129.17l1.62,39.33,31.32,65.65s13.16,6.62,15.59-9.19l-25.88-68.15-22.64-27.64Z"/>
      <path id="path219" class="cls-8" d="m5.59,169.53s3.38,1.32,4.12,0c.74-1.32,3.01-7.2,6.32-6.69,3.23.51,7.43,2.21,8.53-.66s1.62-3.6,1.62-3.6l25.73,66.46s-.29,14.63-15.59,9.19L5.59,169.53Z"/>
      <path id="path221" class="cls-1" d="m5.59,169.53s3.38,1.32,4.12,0c.74-1.32,3.01-7.2,6.32-6.69,3.23.51,7.43,2.21,8.53-.66s1.62-3.6,1.62-3.6l25.73,66.46s-.29,14.63-15.59,9.19L5.59,169.53Z"/>
      <g id="Layer1014">
        <path id="path223" class="cls-5" d="m12.94,164.61l31.54,70.14s-1.69.44-5.88-.29l-29.41-64.18s1.69-1.54,3.6-5.15l.15-.51Z"/>
      </g>
      <path id="path226" class="cls-7" d="m33.01,226.14l3.53,7.72s8.31,3.16,12.28-1.76c0,0,2.28-2.87,2.57-7.13l-2.28-5.73-16.1,6.91Z"/>
      <path id="path228" class="cls-6" d="m29.92,219.75s10.22,1.76,16.54-7.35l2.65,6.98s-2.65,7.2-15.95,7.2l-3.23-6.84Z"/>
      <path id="path230" class="cls-6" d="m21.83,164.17s1.1.15,2.28-.81l20.66,53.23-1.62.66-21.17-52.42-.15-.66Z"/>
      <path id="path232" class="cls-4" d="m66.83,121.16c0,2.87-2.06,5.15-4.56,5.15s-4.56-2.28-4.56-5.15,2.06-5.15,4.56-5.15,4.63,2.35,4.56,5.15h0Z"/>
      <path id="path234" class="cls-4" d="m92.34,113.73c.66,2.72-.74,5.44-3.16,6.1-2.43.59-4.93-1.18-5.66-3.9-.66-2.72.74-5.44,3.16-6.1,2.43-.59,4.93,1.18,5.66,3.9Z"/>
      <g id="Layer1015">
        <path id="path236" class="cls-5" d="m66.31,63.81s5.66,14.12.96,20.81c0,0-5.73,2.87-10.15,7.79-4.41,4.93-17.5,20-17.06,43.16.44,23.16,13.31,36.02,46.24,46.32,0,0-22.35,4.56-43.08-9.56-20.73-14.19-9.48-64.11,14.48-84.84,0,0,.29-7.06-6.76-9.63,0,0,7.79.07,9.34,5.51,0,0-.51-8.09-3.09-10.15-2.57-2.06,4.93.59,6.32,6.62-.07-.07,5.07-8.68,2.79-16.03h0Z"/>
      </g>
      <g id="Layer1016">
        <path id="path239" class="cls-5" d="m73.74,115.94c1.84,10-2.13,19.11-8.97,20.36-6.76,1.25-13.82-5.81-15.66-15.81-1.84-10,2.13-19.11,8.97-20.36,6.84-1.25,13.82,5.81,15.66,15.81h0Z"/>
      </g>
      <g id="Layer1017">
        <path id="path242" class="cls-5" d="m96.24,105.65c4.78,9.04,3.97,18.89-1.84,21.98s-14.41-1.76-19.19-10.81c-4.78-9.04-3.97-18.89,1.84-21.98,5.81-3.09,14.41,1.76,19.19,10.81h0Z"/>
      </g>
      <g id="Layer1018">
        <path id="path245" class="cls-5" d="m46.1,142.04s35.29,6.98,41.39,3.82c6.1-3.16,25.51-17.42,25.51-17.42,0,0-5.15,16.25-22.35,21.25-21.1,6.1-44.55-6.98-44.55-6.98,0,0-.96-1.32,0-.66h0Z"/>
      </g>
      <g id="Layer1019">
        <path id="path248" class="cls-5" d="m51.24,137.48s-6.69,3.01-4.78,11.62c-.07-.07-7.43-9.63,4.78-11.62Z"/>
      </g>
      <g id="Layer1020">
        <path id="path251" class="cls-5" d="m115.06,134.83s-.37-7.35-8.97-8.75c0,0,11.54-3.31,8.97,8.75Z"/>
      </g>
      <path id="path254" class="cls-9" d="m73.52,122.63c0,6.69-4.85,12.13-10.81,12.13s-10.73-5.44-10.73-12.2,4.85-12.13,10.81-12.13c5.95.07,10.81,5.51,10.73,12.2h0Z"/>
      <path id="path256" class="cls-2" d="m73.52,122.63c0,6.69-4.85,12.13-10.81,12.13s-10.73-5.44-10.73-12.2,4.85-12.13,10.81-12.13c5.95.07,10.81,5.51,10.73,12.2h0Z"/>
      <path id="path258" class="cls-11" d="m66.53,122.63c0,2.28-1.69,4.19-3.68,4.19s-3.68-1.91-3.68-4.19,1.69-4.19,3.75-4.19c1.91,0,3.6,1.91,3.6,4.19h0Z"/>
      <path id="path260" class="cls-13" d="m54.33,116.45s.37,18.6,12.42,15.95c.15,0,.29-.07.44-.07,0,0-2.79,3.38-7.79,1.03-5-2.28-8.6-10.15-5.07-16.91h0Z"/>
      <path id="path262" class="cls-9" d="m65.36,119.39c0,.59-.51,1.03-1.1,1.03s-1.03-.51-1.03-1.1.51-1.03,1.1-1.03c.51,0,1.03.51,1.03,1.1Z"/>
      <path id="path264" class="cls-9" d="m96.82,108.95c2.72,6.18.51,13.09-4.93,15.51-5.44,2.43-12.06-.59-14.7-6.76-2.72-6.18-.51-13.09,4.93-15.51,5.37-2.43,11.98.59,14.7,6.76h0Z"/>
      <path id="path266" class="cls-2" d="m96.82,108.95c2.72,6.18.51,13.09-4.93,15.51-5.44,2.43-12.06-.59-14.7-6.76-2.72-6.18-.51-13.09,4.93-15.51,5.37-2.43,11.98.59,14.7,6.76h0Z"/>
      <path id="path268" class="cls-11" d="m90.35,111.75c.96,2.13.15,4.48-1.69,5.37-1.84.81-4.12-.22-5.07-2.35-.96-2.13-.15-4.48,1.69-5.37,1.84-.81,4.12.29,5.07,2.35Z"/>
      <path id="path270" class="cls-13" d="m76.75,111.09s7.87,16.84,17.86,9.56c.15-.07.22-.22.37-.29,0,0-1.18,4.19-6.69,4.12-5.59-.07-12.06-5.81-11.54-13.38Z"/>
      <path id="path272" class="cls-9" d="m87.93,109.25c.22.51,0,1.18-.51,1.4-.51.22-1.18,0-1.4-.51-.22-.51,0-1.18.51-1.4.59-.22,1.18,0,1.4.51Z"/>
      <g id="Layer1021">
        <path id="path274" class="cls-15" d="m68.52,159.61s19.26-1.84,36.54-13.38l-.96-3.97-14.78,8.97-28.45-1.69,7.65,10.07Z"/>
      </g>
      <path id="path277" class="cls-6" d="m72.49,146.23l15.37.07,11.32-7.94c.07,0-13.16,7.43-26.69,7.87Z"/>
      <path id="path279" class="cls-6" d="m6.76,143.65l3.09,22.5-2.5,1.03-1.69-22.86,1.1-.66Z"/>
      <path id="path281" class="cls-12" d="m4.19,143.51s5.44,2.65,8.31-3.23l-9.19-10.73.88,13.97Z"/>
      <g id="Layer1022">
        <path id="path283" class="cls-5" d="m37.27,188.21s20.44,6.91,33.52-4.12l-8.45,12.28-23.38-5.22-1.69-2.94Z"/>
      </g>
      <g id="Layer1023">
        <path id="path286" class="cls-5" d="m76.39,172.03s25.58,19.41,32.72-6.91c.07,0-9.34,23.45-32.72,6.91Z"/>
      </g>
      <g id="Layer1024">
        <path id="path289" class="cls-5" d="m80.94,184.16s-23.89,22.94,6.25,49.55c0,0-10.44,4.71-19.85-10.95-9.41-15.66-2.21-31.17,8.53-39.04l5.07.44Z"/>
      </g>
      <path id="path292" class="cls-16" d="m86.16,195.85s3.82-1.69,4.56,1.25c.74,2.87-4.85,6.98-16.62,10.07-11.76,3.09-40.95,11.1-40.95,11.1l-18.01-10s2.43-2.65,4.12-1.4,15.14-1.4,15.14-1.4c0,0,.74-2.87,0-3.6s-1.69-3.9-.96-5.07,2.87-1.4,2.87.22.96,4.12,2.35,4.85c1.47.74,2.87,3.6,2.87,3.6,0,0,41.76-7.72,44.63-9.63Z"/>
      <path id="path294" class="cls-1" d="m86.16,195.85s3.82-1.69,4.56,1.25c.74,2.87-4.85,6.98-16.62,10.07-11.76,3.09-40.95,11.1-40.95,11.1l-18.01-10s2.43-2.65,4.12-1.4,15.14-1.4,15.14-1.4c0,0,.74-2.87,0-3.6s-1.69-3.9-.96-5.07,2.87-1.4,2.87.22.96,4.12,2.35,4.85c1.47.74,2.87,3.6,2.87,3.6,0,0,41.76-7.72,44.63-9.63Z"/>
      <path id="path296" class="cls-6" d="m90.79,193.5s12.87.07,14.56-.22,6.91-9.41,6.91-9.41c0,0,1.69-1.18,1.18.59-.59,1.69-4.93,8.31-4.93,8.31l4.26,6.62,8.31-2.57.59.29,11.4,6.32-11.69-4.63-8.6,2.57-5.15-6.91-16.84-.96Z"/>
      <path id="path298" class="cls-6" d="m107.92,193.43s10.66-3.38,11.98-4.12c1.32-.66,3.16-9.63,3.16-9.63,0,0,1.1-1.4,1.1.15s-1.84,8.16-1.84,8.16l5.29,4.34,6.18-4.34.59.07,11.1,2.13-10.88-.66-6.4,4.41-6.03-4.34-14.26,3.82Z"/>
      <path id="path300" class="cls-6" d="m94.25,197.54s7.06,6.4,8.16,7.06,8.45-1.84,8.45-1.84c0,0,1.54.22.37.88-1.18.66-6.76,2.21-6.76,2.21l-.88,5.73,5.81,2.65.15.44,3.23,9.12-4.19-8.31-5.95-2.79.51-6.32-8.9-8.82Z"/>
      <g id="Layer1025">
        <path id="path302" class="cls-5" d="m93.15,229.38l9.12,33.52s-7.72,9.63,20.81,8.82c0,0-26.76,3.53-25.51-6.98l-6.47-33.45,2.06-1.91Z"/>
      </g>
      <g id="Layer1026">
        <path id="path305" class="cls-5" d="m72.49,230.48l-3.6,26.39,2.57,1.91,2.21-27.94-1.18-.37Z"/>
      </g>
      <path id="path308" class="cls-6" d="m20.36,209.53s10.37,5.15,13.89,5.15,45.29-11.32,53.08-16.17c0,0,2.35,0,.22,1.69s-54.26,17.13-54.26,17.13l-12.94-7.79Z"/>
    </g>
    <g>
      <g>
        <path class="cls-19" d="m208.31,163.8c-1.81,0-4.45-.11-6.73-.64l-.21-.05c-4.67-1.27-7.7-3.07-11.6-6.86-3.16-2.95-4.13-4.5-5.9-7.84l-.11-.22c-2.91-6.13-3.99-10.92-3.99-17.69,0-5.9.42-9.98,5.99-12.87l.34-.18.36-.13c1.53-.54,2.66-.81,4.31-.93-5.21-3.52-8.44-6.71-11.04-11.62-2.17-3.91-3.15-7.7-3.15-12.28,0-8.27,4.02-17.55,10-23.09,6.65-6.06,15.55-9.52,24.45-9.52,1.98,0,3.94.18,5.82.53,6.42,1.2,10.64,3.32,14.54,7.33,4,4.24,6.21,9.29,7.68,17.49.96,4.95,1.5,12.21-.19,16.1l-.12.28-.15.26c-3.15,5.51-8.03,5.97-12.76,5.97-.61,0-1.17,0-1.69-.02,6.7,4.73,10.59,9.11,12.77,14.22l.04.1c1.87,4.62,3.3,13.04,2.36,18.58-1.58,10.06-9.91,18.69-21.19,21.91-2.7.74-6.27,1.15-9.85,1.15Zm1.29-79.14c-.31.2-.77.55-1.35,1.17-1.15,1.27-1.84,2.88-1.24,6.38.39,2.5.47,2.68,2.19,4.88.79,1,1.74,1.99,3.41,3.25-.61-2.3-.96-5.39-1.01-5.82-.64-5.91-1.5-8.67-2-9.86Z"/>
        <path class="cls-20" d="m204.24,82.06c-2.66,2.92-3.45,6.38-2.66,11.07.53,3.45,1.06,4.52,3.28,7.35,1.95,2.48,4.43,4.52,9.21,7.44,10.1,5.94,15.41,10.72,17.81,16.3,1.68,4.16,2.75,11.43,2.04,15.59-1.24,7.88-7.97,14.88-17.27,17.54-3.9,1.06-10.36,1.24-13.82.44-3.9-1.06-6.11-2.48-9.21-5.49-2.66-2.48-3.28-3.45-4.87-6.47-2.48-5.23-3.45-9.21-3.45-15.32,0-5.67.44-6.64,3.01-7.97,1.51-.53,2.21-.71,5.76-.71s4.25,0,5.67.71c2.66,1.51,2.92,2.3,3.54,11.6.8,9.12,2.3,11.6,6.11,10.19,1.77-.71,2.66-1.77,3.54-4.87.97-2.92.97-4.16,0-7.88-1.95-7.97-4.25-10.72-13.29-16.12-9.12-5.4-12.4-8.24-15.06-13.29-1.68-3.01-2.48-5.94-2.48-9.66,0-6.91,3.45-14.62,8.24-19.05,7-6.38,17.01-9.21,25.51-7.62,5.23.97,8.42,2.48,11.6,5.76,3.01,3.19,4.87,7.18,6.2,14.62,1.06,5.49,1.06,10.9.18,12.93-1.42,2.48-3.01,3.19-7.97,3.19-3.54,0-4.25-.18-5.67-.8-.8-.53-1.77-1.42-2.04-1.95s-.8-3.19-1.06-5.67c-.97-8.95-2.66-13.64-4.96-14.62-2.48-1.06-5.23-.09-7.88,2.75Z"/>
        <path class="cls-19" d="m251.15,168.83c-1.6,0-3.1-.19-4.46-.57-5.88-1.46-7.07-4.86-8.22-9.86l-.05-.26c-1.36-7.6-2.57-18.52-3-27.19-.45-9-.21-29,.45-37.55l.02-.16c.2-1.84.45-6.48.68-12.73.46-10.39.62-13.9,6.33-16.68,3.27-1.66,7.18-1.91,9.23-1.91s6.12.27,9.24,2.06c.99.55,2.98,1.96,4.13,3.72,1.79,2.49,1.75,4.52,1.66,7.04,2.33-.65,4.91-.95,7.86-.95,6.28,0,13.08,2.26,16.92,5.62l.15.14c1.99,1.87,5.65,6.84,6.94,9.77l.09.21.07.21c.98,2.83,3.09,11.52,3.31,15.5.5,7.13-1.14,15.36-4.5,22.49-3.57,7.56-7.28,11.9-12.4,14.52l-.14.07c-3.39,1.62-8.49,2.62-13.3,2.62-1.96,0-3.77-.17-5.4-.49-1.14-.19-2.32-.51-3.51-.95.55,16.15.42,17.42.08,18.68-1.28,4.91-7.36,6.67-12.18,6.67Zm17.55-48.82c.6,1.23.98,1.8,1.32,2.13.49-1,1.12-2.72,1.61-5.39.29-1.72.37-11.66.04-15.28-.08-.47-.17-.95-.27-1.42-1.41,3.04-3.1,7.15-3.66,9.16-.9,3.28-.56,7.11.95,10.8Z"/>
        <path class="cls-20" d="m296.99,105.53c.44,6.38-1.06,13.64-3.99,19.84-3.01,6.38-5.94,9.92-9.92,11.96-3.72,1.77-10.63,2.66-15.32,1.68-2.75-.44-5.94-2.04-8.42-3.99l-2.04-1.77.27,5.49c.44,12.31.71,20.99.44,21.97-.53,2.04-6.2,3.28-9.92,2.21-2.92-.71-3.28-1.51-4.25-5.76-1.24-6.91-2.48-17.63-2.92-26.49-.44-8.95-.18-28.79.44-36.85.27-2.48.53-8.42.71-13.11.44-9.92.53-10.63,3.28-11.96,3.45-1.77,10.19-1.77,13.29,0,.8.44,1.95,1.42,2.3,2.04.8,1.06.8,1.51.71,3.9-.18,1.51-.53,4.16-.8,5.76-.27,1.68-.53,3.54-.71,4.25l-.18,1.24,2.21-2.21c3.45-3.19,7.18-4.43,12.84-4.43,4.96,0,10.45,1.77,13.29,4.25,1.51,1.42,4.69,5.76,5.67,7.97.89,2.57,2.83,10.72,3.01,14Zm-19.84-4.78c-.53-3.19-1.68-7.44-2.48-8.68-1.24-1.77-3.72-1.24-5.76,1.06-1.42,1.68-5.49,11.07-6.47,14.62-1.24,4.52-.8,9.66,1.24,14.53,1.42,2.92,2.48,4.16,4.52,5.23,2.21,1.06,2.48,1.06,3.9.44,2.21-1.06,3.99-4.96,4.96-10.19.44-2.66.44-13.46.09-17.01Z"/>
        <path class="cls-19" d="m330.4,163.24c-1.81,0-5.28-.12-8.22-.93-8.83-2.31-14.94-7.11-19.72-15.52-3.58-6.47-5.24-14.16-5.24-24.25,0-6.01.3-8.64,1.8-15.68,3.58-15.51,9.19-24.76,18.76-31.01,4.49-3.03,8.57-3.8,14.07-4.08.87-.03,1.59-.04,2.26-.04,5.03,0,8.19.77,12.07,2.96,5.44,3.15,9.62,9.25,10.7,15.57.82,4.54.67,10.11-.41,13.8l-.04.12c-1.12,3.55-2.75,6.78-4.77,9.53,1.15.19,2.34.5,3.31.98,6.49,3.11,5.24,11.74,4.14,19.36-1.11,7.2-2.07,10.51-4.49,15.45l-.07.13c-3.81,7.29-8.29,10.86-15.98,12.72-2.15.56-5.09.89-8.19.89Zm0-38.93c.64,3.99,1.77,8.84,2.78,11.64.85-2.16,1.86-5.99,2.33-12.09-1.52.27-3.15.4-5.11.44Z"/>
        <path class="cls-20" d="m353.68,133.26c-1.06,6.91-1.95,9.66-3.99,13.82-3.01,5.76-6.2,8.42-12.4,9.92-3.72.97-10.1.97-13.64,0-7.44-1.95-12.31-5.76-16.39-12.93-3.19-5.76-4.52-12.58-4.52-21.53,0-5.67.27-7.88,1.68-14.53,3.19-13.82,7.97-22.06,16.39-27.55,3.28-2.21,6.11-2.92,11.34-3.19,5.4-.18,7.88.27,11.34,2.21,3.99,2.3,7.18,7,7.97,11.69.71,3.9.53,8.59-.27,11.34-2.04,6.47-5.94,11.43-10.72,13.82-3.99,1.95-6.2,2.48-11.6,2.48-3.45,0-4.52,0-4.52.44,0,4.69,2.21,15.15,3.99,19.49.8,1.95,2.48,3.72,3.9,4.43.8.27,1.24.27,2.3-.18,3.19-1.42,5.67-8.42,6.47-18.87.18-2.48.27-2.92,1.24-3.72.53-.44,1.77-.97,2.66-1.24,1.77-.53,6.2-.27,7.62.44,2.21,1.06,2.48,4.43,1.15,13.64Zm-29.14-24.71c.18,0,.71.27,1.42.71,1.51.53,2.66.53,4.43.18,4.87-1.42,8.15-10.1,6.64-17.27-.18-1.06-.71-2.21-1.24-2.75-.8-.71-1.06-.8-2.48-.71-2.92.44-4.52,2.21-6.11,6.64-.8,2.3-2.92,12.93-2.66,13.2Z"/>
        <path class="cls-19" d="m369.76,164.09c-1.18,0-2.25-.08-3.16-.25-9.04-1.62-9.4-7.71-10.44-25.74-.31-3.43-.57-7.36-.76-10.24-.09-1.31-.16-2.4-.22-3.12-.84-9.04-.81-33.12-.19-45.69.62-12.31.84-13.48,1.98-15.18,2.96-4.58,10.19-5.08,13.17-5.08,2.38,0,5.86.3,8.91,1.74,5.99,2.78,5.72,7.01,5.19,15.43-.21,3.03-.69,10.59-.79,15.79v.21c-.26,4.51-.7,13.26-.98,19.51-.71,13.41-.69,30.17-.19,35.67.47,6.06.99,12.85-5.47,15.85l-.24.11-.25.09c-2.41.85-5.64.92-6.57.92Z"/>
        <path class="cls-20" d="m378.75,75.59c-.27,3.9-.71,11.07-.8,16.03-.27,4.69-.71,13.64-.97,19.58-.71,13.38-.71,30.47-.18,36.41.53,6.91.18,9.21-2.3,10.36-1.51.53-4.96.8-6.91.44-4.43-.8-4.87-2.3-5.94-20.73-.44-4.96-.8-11.07-.97-13.38-.8-8.59-.8-32.42-.18-45,.44-8.86.71-11.87,1.06-12.4,1.77-2.75,10.63-3.54,15.15-1.42,2.48,1.15,2.57,1.68,2.04,10.1Z"/>
        <path class="cls-19" d="m394.3,164.09c-1.18,0-2.25-.08-3.16-.25-9.04-1.62-9.4-7.71-10.44-25.75-.31-3.45-.57-7.4-.76-10.29-.09-1.29-.16-2.37-.21-3.07-.84-9.04-.81-33.11-.19-45.69.62-12.31.84-13.48,1.99-15.19,2.95-4.58,10.19-5.08,13.16-5.08,2.38,0,5.86.3,8.91,1.74,6.12,2.84,5.79,7.33,5.19,15.49-.2,2.98-.69,10.55-.78,15.73v.21c-.26,4.48-.71,13.41-.98,19.51-.71,13.41-.69,30.17-.19,35.67.47,6.06.99,12.85-5.47,15.85l-.24.11-.25.09c-2.41.85-5.64.92-6.57.92Z"/>
        <path class="cls-20" d="m403.29,75.59c-.27,3.9-.71,11.07-.8,16.03-.27,4.69-.71,13.64-.97,19.58-.71,13.38-.71,30.47-.18,36.41.53,6.91.18,9.21-2.3,10.36-1.51.53-4.96.8-6.91.44-4.43-.8-4.87-2.3-5.94-20.73-.44-4.96-.8-11.07-.97-13.38-.8-8.59-.8-32.42-.18-45,.44-8.86.71-11.87,1.06-12.4,1.77-2.75,10.63-3.54,15.15-1.42,2.48,1.15,2.66,1.68,2.04,10.1Z"/>
        <path class="cls-19" d="m420.34,164.89c-1.83,0-3.6-.25-5.15-.72-1.72-.44-3.3-1.37-4.17-2.07l-.13-.1-.12-.11c-3.57-3.21-7.05-10.42-7.05-59.11,0-13.96.3-30.63,1.14-35.56.7-4.34,2.02-7.28,6.65-9.33,2.61-1.18,4.11-1.45,7.99-1.45s9.1.49,12.52,4.32l.17.2c2.46,2.81,2.35,3.92,1.34,14.55l-.13,1.32c-.31,3-.7,8.73-.93,13.14.98-.06,1.91-.07,2.73-.07,3.7,0,7.39.4,10.11,1.09,6.5,1.79,12.33,5.66,15.7,10.38l.1.15c2.4,3.6,3.29,5.88,4.61,10.49l.05.18c.9,3.6,1.17,4.97.87,9.51-.33,8.62-2.84,14.97-8.14,20.59-6.28,6.82-16.12,12.13-25.67,13.93-.16,1.94-.69,3.66-2.34,5.31l-.1.1c-3.12,2.96-8.06,3.28-10.04,3.28Zm14.64-54.31c-.71.31-2.02.88-2.69,4.74-.31,1.73-.54,10.75-.39,17.3,1.6-1.2,2.97-2.78,3.93-4.56,1.28-2.81,1.74-5.02,1.74-8.37,0-2.92-.46-5.21-1.45-7.19-.46-.96-.82-1.56-1.08-1.94l-.04.02Z"/>
        <path class="cls-20" d="m460.42,113.5c.8,3.19.97,3.99.71,7.88-.27,7.35-2.21,12.4-6.64,17.1-6.11,6.64-16.03,11.6-25.07,12.67l-2.04.18v2.75c0,2.48-.18,2.92-.8,3.54-1.77,1.68-6.64,2.3-9.92,1.24-.8-.18-1.77-.71-2.21-1.06-3.54-3.19-5.23-21.35-5.23-55.01,0-17.54.44-31,1.06-34.64.53-3.28,1.06-4.16,3.45-5.23,1.77-.8,2.48-.97,5.76-.97,4.43,0,6.91.8,8.42,2.48,1.06,1.24,1.06.71,0,11.87-.53,5.14-1.42,19.84-1.06,20.11,0,0,.53-.18,1.24-.27,3.72-1.06,11.34-.97,15.86.18,5.14,1.42,9.92,4.52,12.58,8.24,1.95,2.92,2.66,4.61,3.9,8.95Zm-17.36,6.2c0-3.9-.71-7-2.04-9.66-2.48-5.14-4.69-6.2-8.24-4.52-3.28,1.42-5.14,4.25-5.94,8.86-.53,2.92-.71,17.1-.27,22.94l.18,3.28,1.42-.18c.71-.18,2.48-.8,3.9-1.51,3.54-1.68,6.73-4.69,8.68-8.42,1.59-3.45,2.3-6.47,2.3-10.81Z"/>
        <path class="cls-19" d="m494.55,163.24c-1.81,0-5.28-.12-8.22-.93-8.84-2.31-14.94-7.11-19.72-15.52-3.58-6.47-5.24-14.15-5.24-24.25,0-6,.3-8.64,1.8-15.68,3.58-15.51,9.19-24.76,18.77-31.01,4.49-3.03,8.56-3.8,14.07-4.08.87-.03,1.59-.04,2.26-.04,5.03,0,8.19.77,12.07,2.96,5.44,3.14,9.62,9.24,10.7,15.57.82,4.53.67,10.1-.41,13.8l-.04.12c-1.12,3.55-2.75,6.78-4.77,9.53,1.15.19,2.34.5,3.31.99,6.63,3.18,5.25,12.18,4.13,19.41-1.1,7.15-2.06,10.46-4.48,15.4l-.07.13c-3.81,7.29-8.29,10.85-15.98,12.72-2.15.56-5.09.89-8.19.89Zm0-38.93c.64,3.99,1.77,8.84,2.78,11.64.85-2.16,1.86-5.99,2.33-12.09-1.52.27-3.15.4-5.11.44Z"/>
        <path class="cls-20" d="m517.82,133.26c-1.06,6.91-1.95,9.66-3.99,13.82-3.01,5.76-6.2,8.42-12.4,9.92-3.72.97-10.1.97-13.64,0-7.44-1.95-12.31-5.76-16.39-12.93-3.19-5.76-4.52-12.58-4.52-21.53,0-5.67.27-7.88,1.68-14.53,3.19-13.82,7.97-22.06,16.39-27.55,3.28-2.21,6.11-2.92,11.34-3.19,5.4-.18,7.88.27,11.34,2.21,3.99,2.3,7.18,7,7.97,11.69.71,3.9.53,8.59-.27,11.34-2.04,6.47-5.94,11.43-10.72,13.82-3.99,1.95-6.2,2.48-11.6,2.48-3.45,0-4.52,0-4.52.44,0,4.69,2.21,15.15,3.99,19.49.8,1.95,2.48,3.72,3.9,4.43.8.27,1.24.27,2.3-.18,3.19-1.42,5.67-8.42,6.47-18.87.18-2.48.27-2.92,1.24-3.72.53-.44,1.77-.97,2.66-1.24,1.77-.53,6.2-.27,7.62.44,2.21,1.06,2.57,4.43,1.15,13.64Zm-29.14-24.71c.18,0,.71.27,1.42.71,1.51.53,2.66.53,4.43.18,4.87-1.42,8.15-10.1,6.64-17.27-.18-1.06-.71-2.21-1.24-2.75-.8-.71-1.06-.8-2.48-.71-2.92.44-4.52,2.21-6.11,6.64-.8,2.3-2.92,12.93-2.66,13.2Z"/>
        <path class="cls-19" d="m551.95,163.24c-1.81,0-5.28-.12-8.22-.93-8.83-2.31-14.94-7.11-19.72-15.52-3.58-6.47-5.24-14.15-5.24-24.25,0-6.01.3-8.64,1.81-15.68,3.58-15.51,9.18-24.76,18.76-31.01,4.49-3.03,8.57-3.8,14.07-4.08.87-.03,1.59-.04,2.26-.04,5.03,0,8.19.77,12.07,2.96,5.44,3.15,9.62,9.25,10.7,15.57.82,4.53.67,10.1-.41,13.8l-.04.12c-1.12,3.55-2.75,6.78-4.77,9.53,1.15.19,2.34.5,3.31.99,6.49,3.11,5.24,11.74,4.14,19.36-1.11,7.2-2.07,10.51-4.49,15.45l-.07.13c-3.81,7.29-8.29,10.86-15.98,12.72-2.15.56-5.09.89-8.19.89Zm0-38.93c.64,3.99,1.77,8.84,2.78,11.64.85-2.16,1.86-5.99,2.33-12.09-1.52.27-3.15.4-5.11.44Z"/>
        <path class="cls-20" d="m575.23,133.26c-1.06,6.91-1.95,9.66-3.99,13.82-3.01,5.76-6.2,8.42-12.4,9.92-3.72.97-10.1.97-13.64,0-7.44-1.95-12.31-5.76-16.39-12.93-3.19-5.76-4.52-12.58-4.52-21.53,0-5.67.27-7.88,1.68-14.53,3.19-13.82,7.97-22.06,16.39-27.55,3.28-2.21,6.11-2.92,11.34-3.19,5.4-.18,7.88.27,11.34,2.21,3.99,2.3,7.18,7,7.97,11.69.71,3.9.53,8.59-.27,11.34-2.04,6.47-5.94,11.43-10.72,13.82-3.99,1.95-6.2,2.48-11.6,2.48-3.45,0-4.52,0-4.52.44,0,4.69,2.21,15.15,3.99,19.49.8,1.95,2.48,3.72,3.9,4.43.8.27,1.24.27,2.3-.18,3.19-1.42,5.67-8.42,6.47-18.87.18-2.48.27-2.92,1.24-3.72.53-.44,1.77-.97,2.66-1.24,1.77-.53,6.2-.27,7.62.44,2.21,1.06,2.48,4.43,1.15,13.64Zm-29.14-24.71c.18,0,.71.27,1.42.71,1.51.53,2.66.53,4.43.18,4.87-1.42,8.15-10.1,6.64-17.27-.18-1.06-.71-2.21-1.24-2.75-.8-.71-1.06-.8-2.48-.71-2.92.44-4.52,2.21-6.11,6.64-.8,2.3-2.92,12.93-2.66,13.2Z"/>
      </g>
      <g>
        <path class="cls-19" d="m528.58,194.26c-.08.24-.16.4-.24.64-.72-2.17-1.53-3.94-3.14-6.03l-.08-.08c-4.18-5.14-11.9-8.28-20.66-8.28-4.9,0-9.73,1.05-13.83,2.89-4.98,2.33-9.33,6.27-12.38,11.17-2.49-1.37-5.87-2.09-9.89-2.09-1.21,0-2.41.08-3.62.24-2.97.32-5.79,1.05-8.6,2.25.16-2.25.32-4.1.32-5.31,0-2.57-.16-4.58-2.65-6.75-3.3-2.97-7.48-3.38-10.85-3.38s-7.88.32-10.93,3.38l-.08.08-.08.16c-1.85,2.09-1.93,2.57-2.81,13.43-1.53-4.66-4.82-8.92-8.84-11.25l-.08-.08c-3.46-1.93-6.35-2.65-11.09-2.65h-1.85c-5.06.24-8.52.96-12.62,3.7-4.74,3.14-8.44,7.07-11.34,12.3.48-3.94.32-8.28-1.69-10.61-1.85-2.09-4.66-3.14-8.36-3.14-1.61,0-6.35,0-8.92,3.78h0c-1.69,2.49-2.73,9.41-2.73,9.73v.08c-.08.56-.32,2.57-.56,3.94-.24,1.21-.64,3.7-.8,5.47-.48,3.14-1.69,10.13-2.97,17.04-.08-.4-.16-.88-.16-1.29-2.25-17.28-3.86-26.61-5.14-31.19-.72-2.49-3.38-8.28-13.02-8.28-3.22,0-6.03.72-8.12,2.01,0-.64.08-1.29.08-2.09.08-6.19.16-10.21-5.55-13.02-2.41-1.13-3.94-1.29-6.99-1.29-4.26,0-7.72.56-10.37,3.38l-2.57,2.33v7.64c0,5.47,0,10.37,3.7,13.26-1.13.64-1.93,1.37-2.57,2.33-.96-3.94-2.57-6.59-5.06-9-3.62-3.62-8.52-5.39-14.79-5.39-7.07,0-12.06,2.01-17.04,7.07l-.24.24c-.08-3.05-.48-3.78-.8-4.5l-.08-.16-.08-.08c-2.01-3.54-7.07-4.82-11.09-4.82-.88,0-1.77.08-2.57.16-2.41.4-5.31,1.21-7.32,3.62l-.32-6.91-2.65-2.65c-3.14-3.3-5.79-4.02-9.97-4.34h-1.29c-4.02,0-8.92.64-11.5,5.79l-.08.16c-.96,2.17-1.05,3.62-.8,14.87.16,12.94-.24,22.35-1.21,30.39-1.37,10.93-3.22,16.72-4.42,19.21-1.13-2.33-2.73-7.07-3.46-13.34-.64-5.14-.96-26.61-.48-34.33.24-2.81.48-7.15.48-9.73l.32-6.35-2.33-2.57c-3.14-3.54-7.07-4.26-12.78-4.26-4.02,0-5.55.16-7.96,1.05-5.87,2.17-6.51,5.71-6.75,10.93-.56,11.58-.72,26.93-.48,34.33.64,17.85,2.65,26.13,8.6,35.29,3.7,5.87,9.41,9.81,17.04,11.74,2.33.64,5.31.72,7.32.72,3.46,0,6.83-.4,9.24-.96,6.11-1.61,10.05-4.1,13.18-8.2,2.65-3.46,4.66-7.72,6.19-13.26.24,2.57.56,5.14,1.05,8.28,1.45,9.24,2.49,11.42,3.38,12.62,1.21,1.61,3.46,3.7,7.8,4.18.96.16,2.01.24,2.97.24,3.7,0,7.07-.96,9.16-2.73l3.05-2.41-.48-8.84c-.24-6.67-.24-11.74.24-16.56,1.13-11.09,5.23-22.11,8.28-27.41.32,7.15.4,21.06.48,27.9,0,11.01.08,16.16.48,19.45.48,4.18,1.93,6.43,4.98,8.12l.16.08.16.08c2.01.88,3.38,1.05,7.07,1.05s5.23-.08,7.56-1.29l.16-.08c3.86-2.17,4.98-5.39,6.03-11.5.4,2.17.72,3.94,1.13,5.31,1.13,3.54,3.05,5.55,6.43,6.67,1.61.56,3.46.64,4.74.64s4.5-.16,7.07-1.45c.96-.4,3.3-1.61,4.34-4.42.48-1.21.56-2.33.8-30.71v-.4c.8,3.62,1.77,7.24,2.81,10.85,4.82,17.44,10.29,25.32,18.65,27.33,1.53.4,3.3.48,4.42.48.96,0,3.46-.08,5.47-.64,7.4-2.17,9.41-7.32,12.7-19.29.56-2.17,1.53-6.35,2.41-10.93.72,4.74,2.09,8.76,4.1,12.38l.08.08c4.42,7.64,9.89,11.98,17.85,13.99,2.01.56,4.58.8,7.4.8s5.47-.32,7.4-.8c6.91-1.69,10.93-4.9,14.39-11.5l.08-.08c.8-1.61,1.45-2.97,1.93-4.5.08.56.16,1.21.24,1.77,0,.08,1.53,10.05,2.81,13.26h0c1.21,2.81,3.62,3.94,5.55,4.58l.16.08c1.05.32,2.65.48,4.74.48,1.45,0,3.38-.08,4.74-.48l.24-.08.24-.08c1.05-.4,2.17-.96,3.14-1.69l2.65-1.93.16-17.28c.24-13.91.24-13.99.88-16.56,1.69-6.27,4.82-11.58,8.76-14.87,2.17-1.77,5.47-3.62,7.96-4.42.72-.24,1.53-.56,2.33-.88.32,6.75,3.54,12.06,10.05,16.96-2.97.56-5.31,1.85-6.59,3.94-1.13,1.69-2.09,4.42-1.69,12.86.4,8.12,1.85,11.98,6.19,16.56,3.62,3.94,6.43,5.55,12.54,7.15,2.57.72,6.43.88,8.52.88,3.14,0,6.03-.24,8.04-.64,6.91-1.29,13.02-5.63,15.6-11.01,1.61-3.22,2.33-6.99,2.25-10.93m-203.23-49.44v.24l-.16-.16c.08.08.16,0,.16-.08Zm84.41,33.12c-.48,6.03-1.53,9.65-2.33,11.58-.96-2.41-2.09-7.24-2.73-11.17,1.93-.08,3.54-.24,5.06-.4q0-.08,0,0Zm17.36-8.2c-.88-.48-2.01-.72-3.05-.88,1.21-1.61,2.25-3.54,3.14-5.55,0,2.17-.08,4.34-.08,6.43q0,.08,0,0Zm74.04,24.12v.08c-.08,1.61-.24,2.17-.4,2.41-.32-.08-.88-.32-1.45-1.05l-.08-.08c-.8-.96-1.13-1.45-1.21-6.83v-1.93c1.53,1.69,2.57,3.38,2.97,4.58.08.4.24,1.05.16,2.81Zm3.14-35.61c-.08,2.65-.16,4.42-.08,5.79-2.73-2.09-3.14-3.38-3.54-5.63-.24-1.45-.16-2.65,1.05-5.55v-.08c.64-1.53,1.13-2.25,1.45-2.57,1.05,1.85,1.29,4.1,1.13,8.04Zm22.67,13.1c-1.53,3.05-2.41,6.11-2.65,9-2.01-3.38-4.82-6.35-8.6-9.08,1.77-.08,3.46-.48,4.98-1.13,3.86-1.69,5.39-4.82,6.43-7.88v-.08c.32-1.13.64-2.33.88-3.46.48,1.05,1.13,2.01,1.93,2.81.96.96,2.09,1.69,3.38,2.17-2.65,2.01-4.82,4.66-6.35,7.64Z"/>
        <g>
          <path class="cls-20" d="m242.39,186.71c.24,8.92-.24,26.13-1.13,37.7-1.13,14.63-3.54,23.63-8.04,29.42-2.49,3.22-5.55,5.14-10.61,6.51-3.78.96-10.77,1.13-14.15.24-6.35-1.61-11.17-4.9-14.15-9.65-5.55-8.52-7.24-15.92-7.88-32.96-.24-7.4,0-22.91.48-33.92.24-4.74.64-5.55,3.62-6.67,1.61-.64,2.49-.72,6.27-.72,5.14,0,7.4.64,9.16,2.65l.96,1.13-.24,4.5c0,2.41-.24,6.67-.48,9.49-.48,7.64-.24,29.58.48,35.29.96,8.36,3.62,15.92,6.03,17.93,1.29,1.13,2.73,1.13,4.26.16,2.73-1.77,5.55-11.01,7.15-23.88.96-8.36,1.37-18.17,1.29-31.03-.24-10.85-.16-11.74.4-12.86,1.29-2.49,3.38-3.22,8.12-3.14,3.54.24,4.9.72,6.91,2.89l1.37,1.37.16,5.55Z"/>
          <path class="cls-20" d="m297.86,193.22c4.26,4.1,5.23,9.73,5.23,30.07,0,14.15-.24,17.28-1.61,27.41-1.29,8.28-1.85,10.05-4.1,11.25-1.29.64-1.85.72-5.39.72s-4.02-.16-5.14-.64c-2.73-1.53-2.89-2.65-2.89-23.31-.16-21.06-.4-30.95-.96-33.28-.4-1.37-.72-1.77-1.53-2.25-.96-.48-1.13-.48-2.49.24-5.14,2.49-11.9,19.78-13.43,34.33-.48,4.9-.48,9.89-.24,17.28l.4,6.35-1.13.88c-1.61,1.37-5.14,2.01-8.52,1.53-2.09-.24-3.62-.96-4.5-2.25-.72-.96-1.61-4.74-2.49-10.53-1.29-8.28-1.53-12.62-1.53-24.52.16-16.88,1.29-32.32,2.65-36.34.72-1.77,2.01-2.65,5.14-3.14,3.38-.48,7.8.48,8.76,2.25.4.72.48,4.66.16,12.62l-.32,5.95,1.61-3.14c2.41-4.26,4.26-6.91,7.24-9.89,4.1-4.1,7.88-5.63,13.67-5.63,5.06,0,8.68,1.21,11.42,4.02Z"/>
          <path class="cls-20" d="m324.79,201.98c.64.88.64.96.64,28.78-.16,17.04-.24,28.46-.48,29.02-.24.72-.72,1.29-1.85,1.77-1.85.96-6.03,1.29-8.12.48-2.01-.64-2.73-1.53-3.38-3.54-2.01-6.67-3.62-26.53-3.22-40.2.24-9.89.64-13.91,1.37-15.76.64-1.29.96-1.61,2.49-2.41,1.77-.72,2.25-.88,5.39-.88,2.89,0,3.62.16,4.98.88.8.48,1.77,1.29,2.17,1.85Zm1.13-17.93c-.16,4.74-.24,5.39-.96,6.91-.64,1.29-1.13,1.77-2.41,2.41-2.09,1.13-6.11,1.29-8.6.4-3.38-1.13-3.86-2.65-3.86-10.53v-5.55l1.13-.96c1.37-1.53,3.22-2.01,6.99-2.01,2.65,0,3.38.16,4.98.88,2.57,1.21,2.81,1.93,2.73,8.44Z"/>
          <path class="cls-20" d="m378.01,191.29c.88.96.88,5.23.16,9.41-.72,4.02-2.01,12.3-2.73,18.17-.96,6.75-4.42,23.8-5.79,28.94-3.22,12.06-4.74,14.55-9.41,15.92-1.77.48-5.39.64-7.4.16-6.35-1.53-10.85-8.6-15.11-23.88-4.5-15.52-6.75-30.71-6.51-42.85l.16-4.98.96-.96c1.13-1.29,3.54-2.01,6.51-2.01,4.66,0,7.48,1.61,8.36,4.74,1.29,4.42,2.73,13.51,4.98,30.55,1.37,9.65,2.41,15.52,3.62,21.38.4,1.53.72,2.73.88,2.65.24-.24,4.02-15.92,4.9-20.82,1.53-7.88,2.89-15.92,3.38-19.05.16-1.53.48-3.86.72-5.14.24-1.37.48-3.22.64-4.26.4-2.49,1.37-6.91,2.01-7.8.72-1.13,2.41-1.61,4.9-1.61,2.25,0,3.86.48,4.74,1.45Z"/>
          <path class="cls-20" d="m427.21,238.4c-.96,6.27-1.77,8.76-3.62,12.54-2.73,5.23-5.63,7.64-11.25,9-3.38.88-9.16.88-12.38,0-6.75-1.77-11.17-5.23-14.87-11.74-2.89-5.23-4.1-11.42-4.1-19.53,0-5.14.24-7.15,1.53-13.18,2.89-12.54,7.24-20.02,14.87-25,2.97-2.01,5.55-2.65,10.29-2.89,4.9-.16,7.15.24,10.29,2.01,3.62,2.09,6.51,6.35,7.24,10.61.64,3.54.48,7.8-.24,10.29-1.85,5.87-5.39,10.37-9.73,12.54-3.62,1.77-5.63,2.25-10.53,2.25-3.14,0-4.1,0-4.1.4,0,4.26,2.01,13.75,3.62,17.69.72,1.77,2.25,3.38,3.54,4.02.72.24,1.13.24,2.09-.16,2.89-1.29,5.14-7.64,5.87-17.12.16-2.25.24-2.65,1.13-3.38.48-.4,1.61-.88,2.41-1.13,1.61-.48,5.63-.24,6.91.4,2.01.96,2.25,4.02,1.05,12.38Zm-26.45-22.43c.16,0,.64.24,1.29.64,1.37.48,2.41.48,4.02.16,4.42-1.29,7.4-9.16,6.03-15.68-.16-.96-.64-2.01-1.13-2.49-.72-.64-.96-.72-2.25-.64-2.65.4-4.1,2.01-5.55,6.03-.8,2.09-2.65,11.74-2.41,11.98Z"/>
          <path class="cls-20" d="m478.01,201.34c0,.96-1.77,2.89-3.38,3.78-.72.4-2.49,1.13-4.02,1.61-2.97.96-6.91,3.14-9.49,5.23-4.66,3.86-8.36,10.05-10.37,17.36-.72,3.14-.72,3.22-.96,17.77l-.16,14.79-.88.64c-.4.4-1.29.72-1.85.96-1.37.4-5.63.4-6.91,0-1.53-.48-2.25-.96-2.65-1.85-.48-.88-1.85-7.64-2.49-12.06-2.01-13.26-2.41-34.57-1.13-49.84.96-12.06.96-12.38,1.85-13.43,1.37-1.37,3.78-2.01,7.48-2.01s6.03.64,7.64,2.09c.88.72.96.96.96,3.14s-.48,7.64-.88,12.06l-.24,2.01,1.77-1.13c4.26-2.89,8.52-4.5,13.02-4.98,6.67-.64,12.7,1.13,12.7,3.86Z"/>
          <path class="cls-20" d="m510.09,210.18c.24-4.66-.16-7.8-1.61-10.61-1.29-2.49-2.65-3.22-4.98-2.65-2.09.48-3.78,2.41-5.14,5.79-1.53,3.54-1.85,5.79-1.37,8.36.96,5.63,3.22,7.88,12.86,13.26,6.91,4.02,10.77,8.04,13.02,13.75,2.25,5.79,2.25,12.06-.16,16.8-1.85,4.02-6.75,7.4-12.14,8.36-3.62.72-11.42.72-14.39-.16-5.23-1.37-7.24-2.49-10.29-5.79-3.54-3.78-4.5-6.51-4.9-13.51-.24-5.14,0-8.6.88-9.89.88-1.37,3.14-2.09,6.27-2.01,3.22.24,4.9.88,5.55,2.25.4.48.48,2.49.48,5.87.16,5.79.48,7.48,2.25,9.73,2.25,2.97,5.87,3.86,8.12,2.09,1.61-1.29,2.25-2.89,2.41-6.11.16-2.09,0-3.38-.4-4.66-1.29-3.86-5.79-8.92-10.61-12.14-1.61-.96-4.42-2.73-6.27-4.02-8.28-5.39-11.17-10.61-10.29-18.49.48-3.86.88-5.14,2.09-7.8,2.49-4.74,6.51-8.76,11.25-11.01,9.73-4.5,23.31-2.65,28.7,4.02,1.61,2.09,2.25,3.78,2.97,6.75.88,4.26.48,9-.96,13.91-.96,2.97-2.01,4.26-3.78,4.98-2.97,1.29-7.24.88-9-.48q-.88-.64-.56-6.59Z"/>
        </g>
      </g>
      <g>
        <path class="cls-19" d="m554.65,265.53c-1.64,0-4.79-.11-7.46-.84-8.02-2.1-13.56-6.45-17.89-14.09-3.25-5.87-4.75-12.85-4.75-22,0-5.45.28-7.84,1.64-14.23,3.25-14.08,8.34-22.47,17.03-28.15,4.07-2.75,7.77-3.45,12.77-3.7.79-.03,1.44-.04,2.05-.04,4.57,0,7.43.7,10.95,2.69,4.94,2.85,8.73,8.39,9.71,14.13.75,4.12.6,9.17-.37,12.52l-.03.11c-1.01,3.22-2.49,6.15-4.33,8.65,1.05.17,2.12.45,3,.89,6.02,2.89,4.76,11.05,3.75,17.61-1,6.49-1.87,9.49-4.07,13.98l-.06.12c-3.46,6.61-7.53,9.85-14.51,11.54-1.95.51-4.62.81-7.43.81Zm0-35.33c.58,3.62,1.6,8.02,2.52,10.57.77-1.96,1.68-5.44,2.12-10.97-1.38.24-2.86.37-4.64.4Z"/>
        <path class="cls-20" d="m575.77,238.32c-.96,6.27-1.77,8.76-3.62,12.54-2.73,5.23-5.63,7.64-11.25,9-3.38.88-9.16.88-12.38,0-6.75-1.77-11.17-5.23-14.87-11.74-2.89-5.23-4.1-11.42-4.1-19.53,0-5.14.24-7.15,1.53-13.18,2.89-12.54,7.24-20.02,14.87-25,2.97-2.01,5.55-2.65,10.29-2.89,4.9-.16,7.15.24,10.29,2.01,3.62,2.09,6.51,6.35,7.24,10.61.64,3.54.48,7.8-.24,10.29-1.85,5.87-5.39,10.37-9.73,12.54-3.62,1.77-5.63,2.25-10.53,2.25-3.14,0-4.1,0-4.1.4,0,4.26,2.01,13.75,3.62,17.69.72,1.77,2.25,3.38,3.54,4.02.72.24,1.13.24,2.09-.16,2.89-1.29,5.14-7.64,5.87-17.12.16-2.25.24-2.65,1.13-3.38.48-.4,1.61-.88,2.41-1.13,1.61-.48,5.63-.24,6.91.4,2.01.96,2.33,4.02,1.05,12.38Zm-26.45-22.43c.16,0,.64.24,1.29.64,1.37.48,2.41.48,4.02.16,4.42-1.29,7.4-9.16,6.03-15.68-.16-.96-.64-2.01-1.13-2.49-.72-.64-.96-.72-2.25-.64-2.65.4-4.1,2.01-5.55,6.03-.72,2.09-2.65,11.74-2.41,11.98Z"/>
      </g>
    </g>
  </g>
</svg>