<svg id="Layer_4" data-name="Layer 4" xmlns="http://www.w3.org/2000/svg" viewBox="0 0 1280 310.7"><defs><style>.cls-1{fill:#3f51b5;}.cls-2{fill:#311b92;}.cls-3{fill:#90a4ae;}</style></defs><title>Full Logo</title><path class="cls-1" d="M770.33,30.38,753.46,59.47H711.85V163.33H682.76V59.47h-57.6L642,30.38ZM682.76,173.51v-5.82h29.09v5.82Zm0,4.36h29.09v5.82H682.76Zm0,10.18h29.09v46l-29.09,29.09Z"/><path class="cls-1" d="M927.42,177.87a28.36,28.36,0,0,1-.15,2.91,28.34,28.34,0,0,0-.14,2.91H899.2l-.58,4.07h27.93a3.13,3.13,0,0,1-.15,1,3.13,3.13,0,0,0-.15,1H782.84a63.46,63.46,0,0,0,8,17.6,61,61,0,0,0,12.94,14.4,59.89,59.89,0,0,0,17,9.6,59.16,59.16,0,0,0,50.47-5,58.86,58.86,0,0,0,21.24-22.4l24.15,13.38a83.45,83.45,0,0,1-13.24,17.9,94.52,94.52,0,0,1-17.75,14.4,84,84,0,0,1-21.23,9.45,85.53,85.53,0,0,1-24,3.35A84.19,84.19,0,0,1,810,257a85.52,85.52,0,0,1-25.9-15.57,92.24,92.24,0,0,1-19.34-23.7,87.27,87.27,0,0,1-10.47-30h28.51l-.88-4.07H753.74a15.11,15.11,0,0,1-.29-2.91v-2.91h28.22a10.74,10.74,0,0,0-.14-1.89,6,6,0,0,1,.14-2.18H753.45v-3.64c0-.09.1-.82.29-2.18H782l.88-4.07H754a86,86,0,0,1,9.89-29.09A90.72,90.72,0,0,1,782.84,111,87.89,87.89,0,0,1,809,94.82a83.35,83.35,0,0,1,31.42-6h.29A96.79,96.79,0,0,1,871.42,95a86.63,86.63,0,0,1,26.18,15.42,87.65,87.65,0,0,1,29.53,53.53H898.62l.58,4.07h28.51a28.36,28.36,0,0,0,.15,2.91c.09,1,.14,1.94.14,2.91H899.78v4.07ZM898,161.58a63.58,63.58,0,0,0-8-17.89,58.86,58.86,0,0,0-12.95-14.26,60,60,0,0,0-16.87-9.31,60.27,60.27,0,0,0-39.57,0,60,60,0,0,0-16.87,9.31A56.33,56.33,0,0,0,791,143.69a59.55,59.55,0,0,0-7.56,17.89Z"/><path class="cls-1" d="M945.45,174.09v-2.62a24.83,24.83,0,0,1,.29-3.2h29.38l-.58,5.82Zm29.09,4.65.58,5.82-29.38-.28a13.62,13.62,0,0,1-.29-2.76v-2.78Zm58.77-91.63q24.72,0,44.8,11.92a88.12,88.12,0,0,1,31.71,32l-25.31,15.13a61.16,61.16,0,0,0-21.24-21.53,56.57,56.57,0,0,0-30-8.14A53.84,53.84,0,0,0,1014,120a59.12,59.12,0,0,0-16.73,9.75,62.91,62.91,0,0,0-13.09,15,71.23,71.23,0,0,0-8.43,19.2H946.32a84.55,84.55,0,0,1,9.75-30.11,89.53,89.53,0,0,1,45.82-40.73A83.54,83.54,0,0,1,1033.31,87.11Zm76.51,134.11a88,88,0,0,1-31.71,32q-20.07,11.93-44.8,11.92a83.38,83.38,0,0,1-30.55-5.67,86.18,86.18,0,0,1-26.18-16,93.38,93.38,0,0,1-19.49-24.29,95.36,95.36,0,0,1-10.77-30.55h29.39a30.87,30.87,0,0,0,5.67,17.46,64.07,64.07,0,0,0,14.11,15,76.14,76.14,0,0,0,18.62,10.62,51.64,51.64,0,0,0,19.2,4.07,56.48,56.48,0,0,0,30-8.14,61.08,61.08,0,0,0,21.24-21.53Z"/><path class="cls-1" d="M1162.76,163.91h-29.67V60.63l29.67-30v70.69A72.25,72.25,0,0,1,1183,91.18a75.33,75.33,0,0,1,23.13-3.49,71.29,71.29,0,0,1,28.36,5.67,74.91,74.91,0,0,1,23.28,15.56,76.64,76.64,0,0,1,16,23,70.74,70.74,0,0,1,6.25,28.21v3.79h-30.25v-4.66a43.88,43.88,0,0,0-4.22-16,44.59,44.59,0,0,0-9.46-13.09,44.08,44.08,0,0,0-13.53-8.73,42.47,42.47,0,0,0-16.43-3.2A43,43,0,0,0,1177,129.29a45.25,45.25,0,0,0-9.6,12.22,40.31,40.31,0,0,0-4.66,15.12Zm0,10.18h-29.67v-5.82h29.67Zm0,4.36v5.82h-29.67v-5.82Zm-29.67,10.18h29.67v46.26l-29.67,27.64Zm116.66-20.36H1280v5.82h-30.25Zm0,10.18H1280v5.82h-30.25Zm0,10.18H1280v44.51l-30.25,29.39Z"/><path class="cls-2" d="M110,90.38Q92.52,82.21,89.26,69.14t3.27-26.4q6.52-13.33,20.69-24.5A82.73,82.73,0,0,1,145.34,2.72,94.2,94.2,0,0,1,168.21,0a55.08,55.08,0,0,1,22.86,4.9q14.16,6.54,18.24,18.78t1.63,27a113.06,113.06,0,0,1-10.07,30.49A229.35,229.35,0,0,1,184,110.52a101.65,101.65,0,0,1,20.42,26.14q8.43,15.24,10.62,36.47a125.46,125.46,0,0,1-7.35,53.9,129.14,129.14,0,0,1-71.87,74.86,115.6,115.6,0,0,1-54.17,8.44q-24-1.63-40-9.8T15.76,280.12A68.22,68.22,0,0,1,2.42,252.35,98.25,98.25,0,0,1,.52,220.5,120.93,120.93,0,0,1,9,186.74,101,101,0,0,1,27.47,156.8a90.23,90.23,0,0,1,28.85-21.23q17.16-8.17,40-8.17,17.41,0,30.22,8.17A57.09,57.09,0,0,1,146.16,156a54.54,54.54,0,0,1-.82,54.18q-5.44,9.26-9.8,10.61c-2.91.91-5.17.37-6.81-1.63s-2.27-4.81-1.9-8.44,2.18-6.89,5.44-9.8q6.54-6.54,7.62-17.69a44.55,44.55,0,0,0-3.53-22.05,39.9,39.9,0,0,0-15.52-18q-10.91-7.06-28.31-5.45a58.66,58.66,0,0,0-26.95,9.53,74,74,0,0,0-19.87,19.87,108.79,108.79,0,0,0-13.07,26.41,117.66,117.66,0,0,0-6,29.67Q25,242.83,28.83,257t11.43,23.68A47.46,47.46,0,0,0,58.5,294.82a73.68,73.68,0,0,0,23.14,5.71,100.69,100.69,0,0,0,43.83-6.26,93.31,93.31,0,0,0,35.11-23.68,102,102,0,0,0,22-37.84q7.35-22,5.18-48.18A93.3,93.3,0,0,0,180.46,156a109.7,109.7,0,0,0-13.34-22.59q-6,6-10.89,10.07t-7.62,4.63a4.94,4.94,0,0,1-3.82-.55,7.06,7.06,0,0,1-3.26-3.26,5.81,5.81,0,0,1-.27-4.63q.81-2.44,5.17-5.17a77.86,77.86,0,0,0,12-10.89,115.59,115.59,0,0,0-25-20.15Q120.3,95.84,110,90.38Zm76.77-71.32a30.08,30.08,0,0,0-19.06-5.72,41.15,41.15,0,0,0-20.14,5.72,99,99,0,0,0-13.07,9.8,54.69,54.69,0,0,0-12.25,14.7,29.24,29.24,0,0,0-4.08,16.6q.52,8.45,12,15,9.25,6,21.24,12.25a164.57,164.57,0,0,1,23.41,15,142.43,142.43,0,0,0,12.52-22.6,121.39,121.39,0,0,0,7.9-23.68A56.66,56.66,0,0,0,196,34.84,24.48,24.48,0,0,0,186.72,19.06Z"/><path class="cls-2" d="M309.22,261.88a20.71,20.71,0,0,1-13.34-3.27q-5.72-3.8-8.44-13.07a9.16,9.16,0,0,1-.55-3.81,115.58,115.58,0,0,1-16.33,13.61,37.11,37.11,0,0,1-19.6,6.54,24,24,0,0,1-14.43-3.27q-6.25-3.8-9-13.07-2.18-8.7,2.45-24.22t10.34-31q5.72-15.51,9.8-27.76t1.36-15c-1.45-1.08-.46-2.17,3-3.26a38.73,38.73,0,0,1,11.7-1.64,26.34,26.34,0,0,1,12,2.73q5.44,2.73,4.36,9.25a186.33,186.33,0,0,1-9,29.13q-6.26,16.06-11.7,30.22a163.43,163.43,0,0,0-7.62,24.5Q252,248.81,257,251q3.8,1.63,13.07-7.9a275.7,275.7,0,0,0,20.14-23.68q2.71-10.89,6.8-22.59T304.59,175a157.78,157.78,0,0,0,5.17-17.42q1.64-7.35,0-9c-1.46-1.09-.64-2.26,2.45-3.54a28.65,28.65,0,0,1,10.89-1.9,24.68,24.68,0,0,1,11.16,2.45c3.27,1.63,4.53,4.63,3.81,9a225.26,225.26,0,0,1-8.44,29.13Q323.91,199.82,319,214a206.71,206.71,0,0,0-7.07,24.5q-2.19,10.34,2.72,12.52,3.79,1.63,13.88-10.35a272.61,272.61,0,0,0,21-29.12,331.14,331.14,0,0,0,19.33-34.85q8.43-17.68,8.44-28c0-1.09,1.36-2.17,4.08-3.26a27,27,0,0,1,8.17-1.91,10.42,10.42,0,0,1,6.81,1.63q2.71,1.92,0,7.35-10.9,22.34-23.14,44.38a246.94,246.94,0,0,1-26.95,39.47,113.91,113.91,0,0,1-16.34,17.15A36.43,36.43,0,0,1,309.22,261.88Z"/><path class="cls-2" d="M531.89,165q4.35-5.44,8.17-3.54t-.55,9.53q-7.08,12-16.87,28.31a287.16,287.16,0,0,1-21.51,31,125.74,125.74,0,0,1-25,24.23q-13.35,9.53-26.95,7.89-7.63-.54-11.44-4.35a23.84,23.84,0,0,1-5.44-7.9,19.56,19.56,0,0,1-1.64-7.08c0-2-.18-2.8-.54-2.45A62.27,62.27,0,0,1,417,255.07q-8.72,7.35-18,7.35a24.78,24.78,0,0,1-13.61-3.81q-6-3.8-8.72-13.07-3.25-13.06,1.09-31.3a117.18,117.18,0,0,1,14.7-34.85,89.09,89.09,0,0,1,26.14-27.22q15.78-10.62,35.39-7.89,6.52,1.09,12.79,2.45A24.42,24.42,0,0,1,478,152.44q6,5.46,7.9,9.8c1.26,2.91,1.54,4.9.81,6q7.62,1.64,4.36,8.17l-10.89,22.87Q475.8,208,472,216.42t-6.8,15.24a73.93,73.93,0,0,0-4.09,11.16c-.73,2.91-.54,4.72.55,5.45q4.35,3.25,13.06-4.63a167.06,167.06,0,0,0,19.06-21.23q10.34-13.33,20.42-29.13T531.89,165Zm-78.4-10.35q-8.72,1.09-16.88,8.44a87.66,87.66,0,0,0-15,18,135,135,0,0,0-11.7,22.86,161.52,161.52,0,0,0-7.35,22.6q-2.46,10.35-1.91,17.15t5.44,7.35q4.9.54,14.16-10.35a235.88,235.88,0,0,0,18.24-24.77,242.33,242.33,0,0,0,15.24-27q6.25-13.06,5.72-16.33c-.37-1.09,1.81-2.26,6.53-3.54a41.87,41.87,0,0,1,14.16-1.36q-4.37-3.81-10.07-9T453.49,154.62Z"/><path class="cls-2" d="M652.21,165.51q3.27-4.35,7.35-3t1.36,8.44l-2.18,4.35q-3.81,6.54-12.52,21t-19.6,29.13a178.62,178.62,0,0,1-23.14,25.86q-12.26,11.16-23.14,11.16a36.88,36.88,0,0,1-8.44-1.09,23.75,23.75,0,0,1-8.71-4.08,18.67,18.67,0,0,1-6.26-8.71q-2.17-5.72-1.09-15,1.08-7.62,6.26-20.15t11.16-25q2.73-6,5.45-10.89c1.81-3.27,3.62-6.89,5.44-10.89s2.09-5.9.82-5.72-3.9,1.73-7.89,4.63q-9.27,6.54-20.69,21a345.27,345.27,0,0,0-21,29.4,179.37,179.37,0,0,0-14.7,27.5q-5.19,12.52-2.45,14.7,1.62,1.64-3,2.72a45,45,0,0,1-10.34,1.09,24.07,24.07,0,0,1-10.35-2.18q-4.62-2.18-3-7.62,2.73-9.26,7.62-24t9.8-29.67q4.9-15,9.26-27.77t6-18.78q1.63-4.91,8.17-6.53A47,47,0,0,1,545.77,144a31.46,31.46,0,0,1,11.16,2.17c2.9,1.28,3.63,3,2.18,5.18a48.26,48.26,0,0,0-6.81,10.34q-3,6-5.44,12c-1.63,4-3.09,7.71-4.36,11.16a38.55,38.55,0,0,1-3,6.8q3.27-4.35,9.25-11.16t12.8-13.88a132.57,132.57,0,0,1,14.15-12.79,47.76,47.76,0,0,1,13.89-7.9,23.35,23.35,0,0,1,9.53-1.36,29.1,29.1,0,0,1,9.25,1.91,13.57,13.57,0,0,1,6.53,5.44,16.72,16.72,0,0,1,2.45,9.26q-.54,2.73-4.08,11.43t-8.44,19.6l-9,19.05q-4.64,9.81-7.9,18a64.87,64.87,0,0,0-4.08,13.61c-.54,3.63.27,5.63,2.45,6q4.35,1.09,13.07-7.62a204.26,204.26,0,0,0,18.51-21.78q9.8-13.07,19.33-27.77t15.51-25.58Z"/><path class="cls-3" d="M421.19,108.11c-3.34-7.46-11.61-11.5-19.62-13.13s-16.36-1.47-24.27-3.59c-19.42-5.18-32.78-25-31.16-45.07,3.61,7.51,7.31,15.15,13,21.22a25.89,25.89,0,0,0,22,7.84,52.35,52.35,0,0,1-27.22-27.13,52.41,52.41,0,0,1-1.06-38.42c2.22,11.19,11.06,21.41,19.61,29s18.5,13.31,28,19.6c8.4,5.54,16.76,11.79,21.71,20.54S427.63,100.39,421.19,108.11Z"/><path class="cls-3" d="M417.14,128.59a.27.27,0,0,1-.08.07c-3.64,2.84-8.59,3.54-13.16,2.88a33.35,33.35,0,0,1-6.37-1.66c-2.27-.82-4.49-1.81-6.68-2.82-3.72-1.72-7.44-3.49-11-5.48A68.31,68.31,0,0,1,364.87,111c-7.36-7.1-13.07-17-12.26-27.18,1.51,8.6,10.11,14.32,18.65,16.17s17.42.88,26.12,1.71c8,.78,16.54,3.6,21.27,10a19.18,19.18,0,0,1,1.11,1.66C422.75,118.64,421.93,124.81,417.14,128.59Z"/><path class="cls-3" d="M418.65,111.64h0"/><path class="cls-3" d="M439.44,115.9a45.73,45.73,0,0,1-22.3,12.69c4.79-3.78,5.61-10,2.62-15.29a19.18,19.18,0,0,0-1.11-1.66c7.12-2.08,12.72-9.2,14-16.51s-.93-14.88-4.6-21.32-8.77-12-13.9-17.31c-7.31-7.66-15.22-16.15-15.83-26.71A22.61,22.61,0,0,1,414.64,7.28a18.46,18.46,0,0,1,21,9.16c2.19,1.23,10,6.34,12.16,7.55-4,.33-7.62,3.08-19.65,3.52a39.91,39.91,0,0,1-11.86-3.29,9.27,9.27,0,0,0-4.44,3.63,10.59,10.59,0,0,0-.76,8.54A22.93,22.93,0,0,0,415.55,44c5.34,6.55,12.07,11.79,18.2,17.6S445.63,74,448.13,82.1C451.75,93.74,447.79,107,439.44,115.9Z"/><path class="cls-3" d="M416.32,24.22h0"/></svg>