<svg width="115" height="115" viewBox="0 0 115 115" fill="none" xmlns="http://www.w3.org/2000/svg">
<path d="M49.45 67.85L37.0875 55.4875C36.0333 54.4333 34.6917 53.9062 33.0625 53.9062C31.4333 53.9062 30.0917 54.4333 29.0375 55.4875C27.9833 56.5417 27.4563 57.8833 27.4563 59.5125C27.4563 61.1417 27.9833 62.4833 29.0375 63.5375L45.425 79.925C46.575 81.075 47.9167 81.65 49.45 81.65C50.9833 81.65 52.325 81.075 53.475 79.925L85.9625 47.4375C87.0167 46.3833 87.5438 45.0417 87.5438 43.4125C87.5438 41.7833 87.0167 40.4417 85.9625 39.3875C84.9083 38.3333 83.5667 37.8062 81.9375 37.8062C80.3083 37.8062 78.9667 38.3333 77.9125 39.3875L49.45 67.85ZM57.5 115C49.5458 115 42.0708 113.49 35.075 110.469C28.0792 107.448 21.9938 103.352 16.8188 98.1813C11.6438 93.0063 7.54783 86.9208 4.531 79.925C1.51417 72.9292 0.00383333 65.4542 0 57.5C0 49.5458 1.51033 42.0708 4.531 35.075C7.55167 28.0792 11.6476 21.9938 16.8188 16.8188C21.9938 11.6438 28.0792 7.54783 35.075 4.531C42.0708 1.51417 49.5458 0.00383333 57.5 0C65.4542 0 72.9292 1.51033 79.925 4.531C86.9208 7.55167 93.0063 11.6476 98.1813 16.8188C103.356 21.9938 107.454 28.0792 110.475 35.075C113.495 42.0708 115.004 49.5458 115 57.5C115 65.4542 113.49 72.9292 110.469 79.925C107.448 86.9208 103.352 93.0063 98.1813 98.1813C93.0063 103.356 86.9208 107.454 79.925 110.475C72.9292 113.495 65.4542 115.004 57.5 115ZM57.5 103.5C70.3417 103.5 81.2187 99.0437 90.1312 90.1312C99.0437 81.2187 103.5 70.3417 103.5 57.5C103.5 44.6583 99.0437 33.7812 90.1312 24.8687C81.2187 15.9562 70.3417 11.5 57.5 11.5C44.6583 11.5 33.7812 15.9562 24.8687 24.8687C15.9562 33.7812 11.5 44.6583 11.5 57.5C11.5 70.3417 15.9562 81.2187 24.8687 90.1312C33.7812 99.0437 44.6583 103.5 57.5 103.5Z" fill="#1E894D"/>
</svg>
