<svg width="63" height="63" viewBox="0 0 63 63" fill="none" xmlns="http://www.w3.org/2000/svg">
<g id="vuesax/bold/volume-high">
<g id="vuesax/bold/volume-high_2">
<g id="volume-high">
<path id="Vector" d="M47.0068 43.4102C46.5934 43.4102 46.2059 43.281 45.8442 43.0226C44.9916 42.3767 44.8107 41.1624 45.4566 40.3098C49.5129 34.91 49.5129 27.3658 45.4566 21.9661C44.8107 21.1135 44.9916 19.8991 45.8442 19.2532C46.6968 18.6073 47.9111 18.7882 48.557 19.6408C53.6209 26.4099 53.6209 35.866 48.557 42.6351C48.1694 43.1518 47.601 43.4102 47.0068 43.4102Z" fill="#ED940E"/>
<path id="Vector_2" d="M51.7351 49.8694C51.3217 49.8694 50.9341 49.7402 50.5724 49.4818C49.7198 48.8359 49.539 47.6216 50.1849 46.769C57.0832 37.5713 57.0832 24.7048 50.1849 15.5071C49.539 14.6545 49.7198 13.4402 50.5724 12.7943C51.425 12.1483 52.6393 12.3292 53.2852 13.1818C61.217 23.7489 61.217 38.5272 53.2852 49.0943C52.9235 49.611 52.3293 49.8694 51.7351 49.8694Z" fill="#ED940E"/>
<path id="Vector_3" d="M36.7239 9.9003C33.8303 8.29845 30.1357 8.71183 26.3636 11.0629L18.8194 15.791C18.3026 16.101 17.7084 16.2819 17.1142 16.2819H14.7114H13.4196C7.16719 16.2819 3.73096 19.7181 3.73096 25.9705V36.305C3.73096 42.5574 7.16719 45.9936 13.4196 45.9936H14.7114H17.1142C17.7084 45.9936 18.3026 46.1745 18.8194 46.4845L26.3636 51.2126C28.6372 52.6336 30.8591 53.3311 32.926 53.3311C34.2695 53.3311 35.5613 53.0211 36.7239 52.3752C39.5918 50.7733 41.1936 47.4405 41.1936 42.9966V19.2789C41.1936 14.835 39.5918 11.5022 36.7239 9.9003Z" fill="#ED940E"/>
</g>
</g>
</g>
</svg>
